<svg version="1.1" xmlns="http://www.w3.org/2000/svg" xmlns:xlink="http://www.w3.org/1999/xlink" width="986" height="705"><defs><clipPath id="ybwFTxltytdA"><path fill="none" stroke="none" d=" M 0 0 L 986 0 L 986 705 L 0 705 L 0 0 Z"/></clipPath></defs><g transform="scale(1,1)" clip-path="url(#ybwFTxltytdA)"><g><rect fill="rgb(255,255,255)" stroke="none" x="0" y="0" width="986" height="705" fill-opacity="1"/><path fill="none" stroke="rgb(192,192,192)" paint-order="fill stroke markers" d=" M 51.5 0.5 L 51.5 705.5 M 51.5 0.5 L 51.5 705.5 M 125.5 0.5 L 125.5 705.5 M 198.5 0.5 L 198.5 705.5 M 272.5 0.5 L 272.5 705.5 M 345.5 0.5 L 345.5 705.5 M 419.5 0.5 L 419.5 705.5 M 566.5 0.5 L 566.5 705.5 M 640.5 0.5 L 640.5 705.5 M 713.5 0.5 L 713.5 705.5 M 787.5 0.5 L 787.5 705.5 M 860.5 0.5 L 860.5 705.5 M 934.5 0.5 L 934.5 705.5" stroke-opacity="1" stroke-linecap="round" stroke-linejoin="round" stroke-miterlimit="10"/><path fill="none" stroke="rgb(192,192,192)" paint-order="fill stroke markers" d=" M 7.5 0.5 L 7.5 705.5 M 22.5 0.5 L 22.5 705.5 M 36.5 0.5 L 36.5 705.5 M 66.5 0.5 L 66.5 705.5 M 80.5 0.5 L 80.5 705.5 M 95.5 0.5 L 95.5 705.5 M 110.5 0.5 L 110.5 705.5 M 139.5 0.5 L 139.5 705.5 M 154.5 0.5 L 154.5 705.5 M 169.5 0.5 L 169.5 705.5 M 183.5 0.5 L 183.5 705.5 M 213.5 0.5 L 213.5 705.5 M 228.5 0.5 L 228.5 705.5 M 242.5 0.5 L 242.5 705.5 M 257.5 0.5 L 257.5 705.5 M 286.5 0.5 L 286.5 705.5 M 301.5 0.5 L 301.5 705.5 M 316.5 0.5 L 316.5 705.5 M 331.5 0.5 L 331.5 705.5 M 360.5 0.5 L 360.5 705.5 M 375.5 0.5 L 375.5 705.5 M 389.5 0.5 L 389.5 705.5 M 404.5 0.5 L 404.5 705.5 M 434.5 0.5 L 434.5 705.5 M 448.5 0.5 L 448.5 705.5 M 463.5 0.5 L 463.5 705.5 M 478.5 0.5 L 478.5 705.5 M 507.5 0.5 L 507.5 705.5 M 522.5 0.5 L 522.5 705.5 M 537.5 0.5 L 537.5 705.5 M 551.5 0.5 L 551.5 705.5 M 581.5 0.5 L 581.5 705.5 M 596.5 0.5 L 596.5 705.5 M 610.5 0.5 L 610.5 705.5 M 625.5 0.5 L 625.5 705.5 M 654.5 0.5 L 654.5 705.5 M 669.5 0.5 L 669.5 705.5 M 684.5 0.5 L 684.5 705.5 M 699.5 0.5 L 699.5 705.5 M 728.5 0.5 L 728.5 705.5 M 743.5 0.5 L 743.5 705.5 M 757.5 0.5 L 757.5 705.5 M 772.5 0.5 L 772.5 705.5 M 802.5 0.5 L 802.5 705.5 M 816.5 0.5 L 816.5 705.5 M 831.5 0.5 L 831.5 705.5 M 846.5 0.5 L 846.5 705.5 M 875.5 0.5 L 875.5 705.5 M 890.5 0.5 L 890.5 705.5 M 905.5 0.5 L 905.5 705.5 M 919.5 0.5 L 919.5 705.5 M 949.5 0.5 L 949.5 705.5 M 963.5 0.5 L 963.5 705.5 M 978.5 0.5 L 978.5 705.5" stroke-opacity="0.23529411764705882" stroke-linecap="round" stroke-linejoin="round" stroke-miterlimit="10"/><path fill="none" stroke="rgb(192,192,192)" paint-order="fill stroke markers" d=" M 0.5 37.5 L 986.5 37.5 M 0.5 37.5 L 986.5 37.5 M 0.5 89.5 L 986.5 89.5 M 0.5 142.5 L 986.5 142.5 M 0.5 194.5 L 986.5 194.5 M 0.5 247.5 L 986.5 247.5 M 0.5 299.5 L 986.5 299.5 M 0.5 405.5 L 986.5 405.5 M 0.5 457.5 L 986.5 457.5 M 0.5 510.5 L 986.5 510.5 M 0.5 562.5 L 986.5 562.5 M 0.5 615.5 L 986.5 615.5 M 0.5 667.5 L 986.5 667.5" stroke-opacity="1" stroke-linecap="round" stroke-linejoin="round" stroke-miterlimit="10"/><path fill="none" stroke="rgb(192,192,192)" paint-order="fill stroke markers" d=" M 0.5 5.5 L 986.5 5.5 M 0.5 5.5 L 986.5 5.5 M 0.5 16.5 L 986.5 16.5 M 0.5 26.5 L 986.5 26.5 M 0.5 47.5 L 986.5 47.5 M 0.5 58.5 L 986.5 58.5 M 0.5 68.5 L 986.5 68.5 M 0.5 79.5 L 986.5 79.5 M 0.5 100.5 L 986.5 100.5 M 0.5 110.5 L 986.5 110.5 M 0.5 121.5 L 986.5 121.5 M 0.5 131.5 L 986.5 131.5 M 0.5 152.5 L 986.5 152.5 M 0.5 163.5 L 986.5 163.5 M 0.5 173.5 L 986.5 173.5 M 0.5 184.5 L 986.5 184.5 M 0.5 205.5 L 986.5 205.5 M 0.5 215.5 L 986.5 215.5 M 0.5 226.5 L 986.5 226.5 M 0.5 236.5 L 986.5 236.5 M 0.5 257.5 L 986.5 257.5 M 0.5 268.5 L 986.5 268.5 M 0.5 278.5 L 986.5 278.5 M 0.5 289.5 L 986.5 289.5 M 0.5 310.5 L 986.5 310.5 M 0.5 320.5 L 986.5 320.5 M 0.5 331.5 L 986.5 331.5 M 0.5 341.5 L 986.5 341.5 M 0.5 363.5 L 986.5 363.5 M 0.5 373.5 L 986.5 373.5 M 0.5 384.5 L 986.5 384.5 M 0.5 394.5 L 986.5 394.5 M 0.5 415.5 L 986.5 415.5 M 0.5 426.5 L 986.5 426.5 M 0.5 436.5 L 986.5 436.5 M 0.5 447.5 L 986.5 447.5 M 0.5 468.5 L 986.5 468.5 M 0.5 478.5 L 986.5 478.5 M 0.5 489.5 L 986.5 489.5 M 0.5 499.5 L 986.5 499.5 M 0.5 520.5 L 986.5 520.5 M 0.5 531.5 L 986.5 531.5 M 0.5 541.5 L 986.5 541.5 M 0.5 552.5 L 986.5 552.5 M 0.5 573.5 L 986.5 573.5 M 0.5 583.5 L 986.5 583.5 M 0.5 594.5 L 986.5 594.5 M 0.5 604.5 L 986.5 604.5 M 0.5 625.5 L 986.5 625.5 M 0.5 636.5 L 986.5 636.5 M 0.5 646.5 L 986.5 646.5 M 0.5 657.5 L 986.5 657.5 M 0.5 678.5 L 986.5 678.5 M 0.5 688.5 L 986.5 688.5 M 0.5 699.5 L 986.5 699.5" stroke-opacity="0.23529411764705882" stroke-linecap="round" stroke-linejoin="round" stroke-miterlimit="10"/><path fill="none" stroke="rgb(0,0,0)" paint-order="fill stroke markers" d=" M 493.5 2.5 L 493.5 705.5" stroke-opacity="1" stroke-miterlimit="10"/><path fill="none" stroke="rgb(0,0,0)" paint-order="fill stroke markers" d=" M 493.5 1.5 L 489.5 5.5" stroke-opacity="1" stroke-miterlimit="10"/><path fill="none" stroke="rgb(0,0,0)" paint-order="fill stroke markers" d=" M 493.5 1.5 L 497.5 5.5" stroke-opacity="1" stroke-miterlimit="10"/><text fill="rgb(0,0,0)" stroke="none" font-family="geogebra-sans-serif, sans-serif" font-size="16px" font-style="normal" font-weight="normal" text-decoration="normal" x="967" y="348" text-anchor="start" dominant-baseline="alphabetic" fill-opacity="1">g</text><path fill="none" stroke="rgb(0,0,0)" paint-order="fill stroke markers" d=" M 0.5 352.5 L 984.5 352.5" stroke-opacity="1" stroke-miterlimit="10"/><path fill="none" stroke="rgb(0,0,0)" paint-order="fill stroke markers" d=" M 985.5 352.5 L 981.5 348.5" stroke-opacity="1" stroke-miterlimit="10"/><path fill="none" stroke="rgb(0,0,0)" paint-order="fill stroke markers" d=" M 985.5 352.5 L 981.5 356.5" stroke-opacity="1" stroke-miterlimit="10"/><text fill="rgb(0,0,0)" stroke="none" font-family="geogebra-sans-serif, sans-serif" font-size="16px" font-style="normal" font-weight="normal" text-decoration="normal" x="498" y="17" text-anchor="start" dominant-baseline="alphabetic" fill-opacity="1">ΔW</text><path fill="none" stroke="rgb(211,47,47)" paint-order="fill stroke markers" d=" M 0 323.68140614865865 L 3.851562499999943 323.49202077747776 L 7.703125 323.30043241755993 L 11.554687499999943 323.1066104849296 L 15.40625 322.9105241564994 L 19.257812499999943 322.7121423891409 L 23.109375 322.5114339409102 L 26.960937499999943 322.3083673946045 L 30.8125 322.1029111838434 L 34.6640625 321.8950336218803 L 38.515625 321.6847029333683 L 42.3671875 321.4718872893203 L 46.21875 321.2565548455245 L 50.0703125 321.03867378469494 L 53.92187499999994 320.81821236265966 L 57.7734375 320.5951389589133 L 61.625 320.36942213188615 L 65.4765625 320.1410306793099 L 69.32812499999994 319.9099337040907 L 73.1796875 319.67610068613146 L 77.03125000000006 319.43950156058236 L 80.8828125 319.2001068030338 L 84.73437499999994 318.95788752221017 L 88.5859375 318.71281556076286 L 92.4375 318.4648636048128 L 96.2890625 318.21400530294073 L 100.140625 317.9602153953806 L 103.9921875 317.7034698542312 L 107.84375 317.4437460355647 L 111.69531249999994 317.1810228443811 L 115.546875 316.915280913432 L 119.3984375 316.6465027970186 L 123.25 316.37467318095435 L 127.10156249999994 316.09977910997816 L 130.953125 315.82181023400335 L 134.8046875 315.5407590746966 L 138.65625 315.25662131399764 L 142.50781249999994 314.96939610631534 L 146.359375 314.67908641627105 L 150.21093750000006 314.3856993840025 L 154.0625 314.0892467201988 L 157.9140625 313.78974513319844 L 161.765625 313.4872167906641 L 165.6171875 313.1816898185317 L 169.46874999999994 312.87319884013573 L 173.3203125 312.5617855586263 L 177.171875 312.2474993860201 L 181.0234375 311.9303981224695 L 184.87499999999994 311.61054868958865 L 188.7265625 311.2880279219445 L 192.578125 310.9629234211035 L 196.4296875 310.6353344769195 L 200.28125 310.3053730610597 L 204.1328125 309.9731648980815 L 207.984375 309.638850619708 L 211.8359375 309.3025870082845 L 215.68749999999994 308.96454833574273 L 219.5390625 308.6249278047469 L 223.390625 308.28393909903383 L 227.2421875 307.9418180502977 L 231.09375 307.598824429286 L 234.9453125 307.25524386906926 L 238.79687499999997 306.91138992870697 L 242.64843749999997 306.56760630574763 L 246.5 306.2242692061504 L 250.3515625 305.88178988029046 L 254.203125 305.540617333679 L 258.0546875 305.2012412208746 L 261.90625 304.864194930749 L 265.7578125 304.5300588707693 L 269.609375 304.1994639572212 L 273.4609375 303.8730953172861 L 277.3125 303.5516962075379 L 281.1640625 303.2360721516853 L 285.015625 302.9270952981761 L 288.8671875 302.62570899553293 L 292.71875 302.3329325798978 L 296.5703125 302.04986636514474 L 300.421875 301.7776968209502 L 304.2734375 301.5177019182759 L 308.125 301.2712566146887 L 311.9765625 301.03983844367536 L 315.82812499999994 300.8250331624632 L 319.6796875 300.6285404016867 L 323.53125 300.45217924739563 L 327.3828125 300.29789367125437 L 331.234375 300.1677577082063 L 335.0859375 300.0639802622961 L 338.9375 299.9889094007003 L 342.7890625 299.9450359733336 L 346.640625 299.93499637077264 L 350.4921875 299.96157420688 L 354.34375 300.0277006847527 L 358.1953125 300.13645337599314 L 362.046875 300.2910531145156 L 365.8984375 300.4948586781337 L 369.75 300.7513589052847 L 373.60156249999994 301.06416187200466 L 377.453125 301.43698073761595 L 381.30468749999994 301.87361585881774 L 385.15625 302.3779327736588 L 389.00781249999994 302.95383567222706 L 392.859375 303.6052360031063 L 396.7109375 304.33601591718786 L 400.5625 305.149986326744 L 404.4140625 306.0508394610234 L 408.265625 307.04209593272924 L 412.1171875 308.1270464944311 L 415.96875 309.30868886076195 L 419.8203125 310.5896601998977 L 423.671875 311.9721661527869 L 427.5234375 313.45790751463056 L 431.37499999999994 315.04800600090914 L 435.2265625 316.7429308072168 L 439.07812499999994 318.542427942525 L 442.9296875 320.44545455064775 L 446.78124999999994 322.450120613967 L 450.6328125 324.55364053539637 L 454.48437499999994 326.75229709835054 L 458.3359375 329.041420192112 L 462.18749999999994 331.4153824482546 L 466.0390625 333.86761355655136 L 469.890625 336.39063451882 L 473.7421875 338.9761124694786 L 477.59375 341.6149359659785 L 481.4453125 344.29730986475914 L 485.296875 347.012868091404 L 489.1484375 349.7508018353762 L 493 352.4999999999988 L 496.85156249999994 355.2491981646215 L 500.703125 357.98713190859365 L 504.55468749999994 360.7026901352385 L 508.40625 363.38506403401914 L 512.2578125 366.02388753051906 L 516.109375 368.6093654811777 L 519.9609375 371.1323864434463 L 523.8125 373.58461755174307 L 527.6640625 375.95857980788566 L 531.515625 378.24770290164713 L 535.3671875 380.4463594646013 L 539.21875 382.5498793860307 L 543.0703125 384.55454544935 L 546.921875 386.4575720574727 L 550.7734375 388.25706919278093 L 554.625 389.9519939990886 L 558.4765625 391.54209248536716 L 562.328125 393.02783384721084 L 566.1796875 394.4103398001 L 570.03125 395.69131113923584 L 573.8828125 396.8729535055666 L 577.734375 397.95790406726854 L 581.5859375 398.9491605389744 L 585.4375 399.8500136732538 L 589.2890624999999 400.6639840828099 L 593.140625 401.39476399689147 L 596.9921875 402.0461643277708 L 600.84375 402.62206722633897 L 604.6953125 403.12638414118004 L 608.546875 403.5630192623819 L 612.3984375 403.9358381279932 L 616.25 404.24864109471315 L 620.1015625 404.50514132186413 L 623.953125 404.70894688548225 L 627.8046875 404.8635466240047 L 631.6562499999999 404.97229931524515 L 635.5078125 405.0384257931178 L 639.359375 405.0650036292252 L 643.2109375 405.05496402666427 L 647.0625 405.0110905992975 L 650.9140625 404.93601973770177 L 654.765625 404.83224229179154 L 658.6171875 404.70210632874347 L 662.46875 404.54782075260226 L 666.3203125 404.3714595983112 L 670.171875 404.1749668375346 L 674.0234375 403.9601615563225 L 677.875 403.72874338530914 L 681.7265625 403.482298081722 L 685.578125 403.2223031790476 L 689.4296874999999 402.95013363485316 L 693.28125 402.66706742010007 L 697.1328125 402.3742910044649 L 700.984375 402.07290470182176 L 704.8359374999999 401.7639278483126 L 708.6875 401.44830379245997 L 712.5390625 401.1269046827118 L 716.390625 400.8005360427766 L 720.2421875 400.4699411292285 L 724.09375 400.1358050692489 L 727.9453125 399.7987587791233 L 731.796875 399.45938266631885 L 735.6484375 399.11821011970744 L 739.5 398.77573079384746 L 743.3515625 398.43239369425027 L 747.2031249999999 398.0886100712909 L 751.0546875 397.7447561309286 L 754.90625 397.4011755707118 L 758.7578125 397.05818194970016 L 762.609375 396.71606090096407 L 766.4609375 396.37507219525094 L 770.3125 396.03545166425516 L 774.1640625 395.6974129917134 L 778.015625 395.3611493802898 L 781.8671875 395.0268351019164 L 785.71875 394.69462693893814 L 789.5703125 394.3646655230783 L 793.421875 394.0370765788944 L 797.2734375 393.71197207805335 L 801.125 393.38945131040924 L 804.9765625 393.0696018775284 L 808.828125 392.75250061397776 L 812.6796875 392.4382144413716 L 816.53125 392.12680115986217 L 820.3828125 391.8183101814662 L 824.234375 391.51278320933375 L 828.0859375 391.2102548667994 L 831.9375 390.91075327979905 L 835.7890625 390.6143006159953 L 839.640625 390.32091358372685 L 843.4921875 390.0306038936825 L 847.34375 389.74337868600026 L 851.1953125 389.45924092530123 L 855.046875 389.1781897659945 L 858.8984375 388.9002208900197 L 862.7499999999999 388.6253268190435 L 866.6015625 388.3534972029792 L 870.453125 388.0847190865658 L 874.3046875 387.8189771556168 L 878.15625 387.55625396443315 L 882.0078125 387.29653014576667 L 885.859375 387.0397846046173 L 889.7109375 386.78599469705716 L 893.5625 386.535136395185 L 897.4140625 386.287184439235 L 901.265625 386.04211247778767 L 905.1171875 385.79989319696404 L 908.96875 385.56049843941554 L 912.8203125 385.3238993138664 L 916.671875 385.09006629590715 L 920.5234375 384.85896932068795 L 924.375 384.6305778681117 L 928.2265625 384.40486104108453 L 932.078125 384.1817876373382 L 935.9296875 383.96132621530296 L 939.78125 383.74344515447336 L 943.6328125 383.5281127106776 L 947.484375 383.3152970666295 L 951.3359375 383.1049663781175 L 955.1875 382.8970888161545 L 959.0390625 382.69163260539335 L 962.890625 382.48856605908765 L 966.7421875 382.2878576108569 L 970.59375 382.08947584349846 L 974.4453125 381.89338951506824 L 978.296875 381.69956758243796 L 982.1484375 381.50797922252013 L 986 381.3185938513392" stroke-opacity="0.8" stroke-linecap="round" stroke-linejoin="round" stroke-miterlimit="10" stroke-width="2.5"/><text fill="rgb(211,47,47)" stroke="none" font-family="geogebra-sans-serif, sans-serif" font-size="16px" font-style="normal" font-weight="normal" text-decoration="normal" x="5" y="338" text-anchor="start" dominant-baseline="alphabetic" fill-opacity="1">Gravity</text><text fill="none" stroke="rgb(255,255,255)" font-family="geogebra-sans-serif, sans-serif" font-size="16px" font-style="normal" font-weight="normal" text-decoration="normal" x="5" y="338" text-anchor="start" dominant-baseline="alphabetic" stroke-opacity="1" stroke-linejoin="bevel" stroke-miterlimit="10" stroke-width="3">Gravity</text><text fill="rgb(211,47,47)" stroke="none" font-family="geogebra-sans-serif, sans-serif" font-size="16px" font-style="normal" font-weight="normal" text-decoration="normal" x="5" y="338" text-anchor="start" dominant-baseline="alphabetic" fill-opacity="1">Gravity</text><path fill="none" stroke="rgb(46,125,50)" paint-order="fill stroke markers" d=" M -5 -3.209713592759755 L 991 708.2097135927575" stroke-opacity="0.8" stroke-linecap="round" stroke-linejoin="round" stroke-miterlimit="10" stroke-width="2.5"/><text fill="rgb(46,125,50)" stroke="none" font-family="geogebra-sans-serif, sans-serif" font-size="16px" font-style="normal" font-weight="normal" text-decoration="normal" x="5" y="16" text-anchor="start" dominant-baseline="alphabetic" fill-opacity="1">SGD</text><text fill="none" stroke="rgb(255,255,255)" font-family="geogebra-sans-serif, sans-serif" font-size="16px" font-style="normal" font-weight="normal" text-decoration="normal" x="5" y="16" text-anchor="start" dominant-baseline="alphabetic" stroke-opacity="1" stroke-linejoin="bevel" stroke-miterlimit="10" stroke-width="3">SGD</text><text fill="rgb(46,125,50)" stroke="none" font-family="geogebra-sans-serif, sans-serif" font-size="16px" font-style="normal" font-weight="normal" text-decoration="normal" x="5" y="16" text-anchor="start" dominant-baseline="alphabetic" fill-opacity="1">SGD</text><text fill="rgb(211,47,47)" stroke="none" font-family="geogebra-serif, serif" font-size="32px" font-style="italic" font-weight="bold" text-decoration="normal" x="66" y="306" text-anchor="start" dominant-baseline="alphabetic" fill-opacity="1">l=0.1</text><text fill="rgb(46,125,50)" stroke="none" font-family="geogebra-serif, serif" font-size="32px" font-style="italic" font-weight="bold" text-decoration="normal" x="68" y="41" text-anchor="start" dominant-baseline="alphabetic" fill-opacity="1">l=0.1</text></g></g></svg>