<svg version="1.1" xmlns="http://www.w3.org/2000/svg" xmlns:xlink="http://www.w3.org/1999/xlink" width="1310" height="705"><defs><clipPath id="TQruvqQyvcoG"><path fill="none" stroke="none" d=" M 0 0 L 1310 0 L 1310 705 L 0 705 L 0 0 Z"/></clipPath></defs><g transform="scale(1,1)" clip-path="url(#TQruvqQyvcoG)"><g><rect fill="rgb(255,255,255)" stroke="none" x="0" y="0" width="1310" height="705" fill-opacity="1"/><path fill="none" stroke="rgb(192,192,192)" paint-order="fill stroke markers" d=" M 16.5 0.5 L 16.5 705.5 M 16.5 0.5 L 16.5 705.5 M 62.5 0.5 L 62.5 705.5 M 108.5 0.5 L 108.5 705.5 M 153.5 0.5 L 153.5 705.5 M 199.5 0.5 L 199.5 705.5 M 244.5 0.5 L 244.5 705.5 M 290.5 0.5 L 290.5 705.5 M 335.5 0.5 L 335.5 705.5 M 381.5 0.5 L 381.5 705.5 M 427.5 0.5 L 427.5 705.5 M 472.5 0.5 L 472.5 705.5 M 518.5 0.5 L 518.5 705.5 M 563.5 0.5 L 563.5 705.5 M 609.5 0.5 L 609.5 705.5 M 700.5 0.5 L 700.5 705.5 M 746.5 0.5 L 746.5 705.5 M 791.5 0.5 L 791.5 705.5 M 837.5 0.5 L 837.5 705.5 M 882.5 0.5 L 882.5 705.5 M 928.5 0.5 L 928.5 705.5 M 974.5 0.5 L 974.5 705.5 M 1019.5 0.5 L 1019.5 705.5 M 1065.5 0.5 L 1065.5 705.5 M 1110.5 0.5 L 1110.5 705.5 M 1156.5 0.5 L 1156.5 705.5 M 1201.5 0.5 L 1201.5 705.5 M 1247.5 0.5 L 1247.5 705.5 M 1293.5 0.5 L 1293.5 705.5" stroke-opacity="1" stroke-linecap="round" stroke-linejoin="round" stroke-miterlimit="10"/><path fill="none" stroke="rgb(192,192,192)" paint-order="fill stroke markers" d=" M 7.5 0.5 L 7.5 705.5 M 25.5 0.5 L 25.5 705.5 M 35.5 0.5 L 35.5 705.5 M 44.5 0.5 L 44.5 705.5 M 53.5 0.5 L 53.5 705.5 M 71.5 0.5 L 71.5 705.5 M 80.5 0.5 L 80.5 705.5 M 89.5 0.5 L 89.5 705.5 M 98.5 0.5 L 98.5 705.5 M 117.5 0.5 L 117.5 705.5 M 126.5 0.5 L 126.5 705.5 M 135.5 0.5 L 135.5 705.5 M 144.5 0.5 L 144.5 705.5 M 162.5 0.5 L 162.5 705.5 M 171.5 0.5 L 171.5 705.5 M 180.5 0.5 L 180.5 705.5 M 190.5 0.5 L 190.5 705.5 M 208.5 0.5 L 208.5 705.5 M 217.5 0.5 L 217.5 705.5 M 226.5 0.5 L 226.5 705.5 M 235.5 0.5 L 235.5 705.5 M 253.5 0.5 L 253.5 705.5 M 263.5 0.5 L 263.5 705.5 M 272.5 0.5 L 272.5 705.5 M 281.5 0.5 L 281.5 705.5 M 299.5 0.5 L 299.5 705.5 M 308.5 0.5 L 308.5 705.5 M 317.5 0.5 L 317.5 705.5 M 326.5 0.5 L 326.5 705.5 M 345.5 0.5 L 345.5 705.5 M 354.5 0.5 L 354.5 705.5 M 363.5 0.5 L 363.5 705.5 M 372.5 0.5 L 372.5 705.5 M 390.5 0.5 L 390.5 705.5 M 399.5 0.5 L 399.5 705.5 M 408.5 0.5 L 408.5 705.5 M 417.5 0.5 L 417.5 705.5 M 436.5 0.5 L 436.5 705.5 M 445.5 0.5 L 445.5 705.5 M 454.5 0.5 L 454.5 705.5 M 463.5 0.5 L 463.5 705.5 M 481.5 0.5 L 481.5 705.5 M 490.5 0.5 L 490.5 705.5 M 500.5 0.5 L 500.5 705.5 M 509.5 0.5 L 509.5 705.5 M 527.5 0.5 L 527.5 705.5 M 536.5 0.5 L 536.5 705.5 M 545.5 0.5 L 545.5 705.5 M 554.5 0.5 L 554.5 705.5 M 572.5 0.5 L 572.5 705.5 M 582.5 0.5 L 582.5 705.5 M 591.5 0.5 L 591.5 705.5 M 600.5 0.5 L 600.5 705.5 M 618.5 0.5 L 618.5 705.5 M 627.5 0.5 L 627.5 705.5 M 636.5 0.5 L 636.5 705.5 M 645.5 0.5 L 645.5 705.5 M 664.5 0.5 L 664.5 705.5 M 673.5 0.5 L 673.5 705.5 M 682.5 0.5 L 682.5 705.5 M 691.5 0.5 L 691.5 705.5 M 709.5 0.5 L 709.5 705.5 M 718.5 0.5 L 718.5 705.5 M 727.5 0.5 L 727.5 705.5 M 737.5 0.5 L 737.5 705.5 M 755.5 0.5 L 755.5 705.5 M 764.5 0.5 L 764.5 705.5 M 773.5 0.5 L 773.5 705.5 M 782.5 0.5 L 782.5 705.5 M 800.5 0.5 L 800.5 705.5 M 809.5 0.5 L 809.5 705.5 M 819.5 0.5 L 819.5 705.5 M 828.5 0.5 L 828.5 705.5 M 846.5 0.5 L 846.5 705.5 M 855.5 0.5 L 855.5 705.5 M 864.5 0.5 L 864.5 705.5 M 873.5 0.5 L 873.5 705.5 M 892.5 0.5 L 892.5 705.5 M 901.5 0.5 L 901.5 705.5 M 910.5 0.5 L 910.5 705.5 M 919.5 0.5 L 919.5 705.5 M 937.5 0.5 L 937.5 705.5 M 946.5 0.5 L 946.5 705.5 M 955.5 0.5 L 955.5 705.5 M 964.5 0.5 L 964.5 705.5 M 983.5 0.5 L 983.5 705.5 M 992.5 0.5 L 992.5 705.5 M 1001.5 0.5 L 1001.5 705.5 M 1010.5 0.5 L 1010.5 705.5 M 1028.5 0.5 L 1028.5 705.5 M 1037.5 0.5 L 1037.5 705.5 M 1046.5 0.5 L 1046.5 705.5 M 1056.5 0.5 L 1056.5 705.5 M 1074.5 0.5 L 1074.5 705.5 M 1083.5 0.5 L 1083.5 705.5 M 1092.5 0.5 L 1092.5 705.5 M 1101.5 0.5 L 1101.5 705.5 M 1119.5 0.5 L 1119.5 705.5 M 1129.5 0.5 L 1129.5 705.5 M 1138.5 0.5 L 1138.5 705.5 M 1147.5 0.5 L 1147.5 705.5 M 1165.5 0.5 L 1165.5 705.5 M 1174.5 0.5 L 1174.5 705.5 M 1183.5 0.5 L 1183.5 705.5 M 1192.5 0.5 L 1192.5 705.5 M 1211.5 0.5 L 1211.5 705.5 M 1220.5 0.5 L 1220.5 705.5 M 1229.5 0.5 L 1229.5 705.5 M 1238.5 0.5 L 1238.5 705.5 M 1256.5 0.5 L 1256.5 705.5 M 1265.5 0.5 L 1265.5 705.5 M 1274.5 0.5 L 1274.5 705.5 M 1284.5 0.5 L 1284.5 705.5 M 1302.5 0.5 L 1302.5 705.5" stroke-opacity="0.23529411764705882" stroke-linecap="round" stroke-linejoin="round" stroke-miterlimit="10"/><path fill="none" stroke="rgb(192,192,192)" paint-order="fill stroke markers" d=" M 0.5 46.5 L 1310.5 46.5 M 0.5 46.5 L 1310.5 46.5 M 0.5 107.5 L 1310.5 107.5 M 0.5 169.5 L 1310.5 169.5 M 0.5 230.5 L 1310.5 230.5 M 0.5 291.5 L 1310.5 291.5 M 0.5 413.5 L 1310.5 413.5 M 0.5 474.5 L 1310.5 474.5 M 0.5 535.5 L 1310.5 535.5 M 0.5 597.5 L 1310.5 597.5 M 0.5 658.5 L 1310.5 658.5" stroke-opacity="1" stroke-linecap="round" stroke-linejoin="round" stroke-miterlimit="10"/><path fill="none" stroke="rgb(192,192,192)" paint-order="fill stroke markers" d=" M 0.5 10.5 L 1310.5 10.5 M 0.5 10.5 L 1310.5 10.5 M 0.5 22.5 L 1310.5 22.5 M 0.5 34.5 L 1310.5 34.5 M 0.5 58.5 L 1310.5 58.5 M 0.5 71.5 L 1310.5 71.5 M 0.5 83.5 L 1310.5 83.5 M 0.5 95.5 L 1310.5 95.5 M 0.5 120.5 L 1310.5 120.5 M 0.5 132.5 L 1310.5 132.5 M 0.5 144.5 L 1310.5 144.5 M 0.5 156.5 L 1310.5 156.5 M 0.5 181.5 L 1310.5 181.5 M 0.5 193.5 L 1310.5 193.5 M 0.5 205.5 L 1310.5 205.5 M 0.5 217.5 L 1310.5 217.5 M 0.5 242.5 L 1310.5 242.5 M 0.5 254.5 L 1310.5 254.5 M 0.5 266.5 L 1310.5 266.5 M 0.5 279.5 L 1310.5 279.5 M 0.5 303.5 L 1310.5 303.5 M 0.5 315.5 L 1310.5 315.5 M 0.5 328.5 L 1310.5 328.5 M 0.5 340.5 L 1310.5 340.5 M 0.5 364.5 L 1310.5 364.5 M 0.5 376.5 L 1310.5 376.5 M 0.5 389.5 L 1310.5 389.5 M 0.5 401.5 L 1310.5 401.5 M 0.5 425.5 L 1310.5 425.5 M 0.5 438.5 L 1310.5 438.5 M 0.5 450.5 L 1310.5 450.5 M 0.5 462.5 L 1310.5 462.5 M 0.5 487.5 L 1310.5 487.5 M 0.5 499.5 L 1310.5 499.5 M 0.5 511.5 L 1310.5 511.5 M 0.5 523.5 L 1310.5 523.5 M 0.5 548.5 L 1310.5 548.5 M 0.5 560.5 L 1310.5 560.5 M 0.5 572.5 L 1310.5 572.5 M 0.5 584.5 L 1310.5 584.5 M 0.5 609.5 L 1310.5 609.5 M 0.5 621.5 L 1310.5 621.5 M 0.5 633.5 L 1310.5 633.5 M 0.5 646.5 L 1310.5 646.5 M 0.5 670.5 L 1310.5 670.5 M 0.5 682.5 L 1310.5 682.5 M 0.5 694.5 L 1310.5 694.5" stroke-opacity="0.23529411764705882" stroke-linecap="round" stroke-linejoin="round" stroke-miterlimit="10"/><path fill="none" stroke="rgb(0,0,0)" paint-order="fill stroke markers" d=" M 654.5 2.5 L 654.5 705.5" stroke-opacity="1" stroke-miterlimit="10"/><path fill="none" stroke="rgb(0,0,0)" paint-order="fill stroke markers" d=" M 654.5 1.5 L 650.5 5.5" stroke-opacity="1" stroke-miterlimit="10"/><path fill="none" stroke="rgb(0,0,0)" paint-order="fill stroke markers" d=" M 654.5 1.5 L 658.5 5.5" stroke-opacity="1" stroke-miterlimit="10"/><text fill="rgb(0,0,0)" stroke="none" font-family="geogebra-sans-serif, sans-serif" font-size="16px" font-style="normal" font-weight="normal" text-decoration="normal" x="1291" y="348" text-anchor="start" dominant-baseline="alphabetic" fill-opacity="1">g</text><path fill="none" stroke="rgb(0,0,0)" paint-order="fill stroke markers" d=" M 0.5 352.5 L 1308.5 352.5" stroke-opacity="1" stroke-miterlimit="10"/><path fill="none" stroke="rgb(0,0,0)" paint-order="fill stroke markers" d=" M 1309.5 352.5 L 1305.5 348.5" stroke-opacity="1" stroke-miterlimit="10"/><path fill="none" stroke="rgb(0,0,0)" paint-order="fill stroke markers" d=" M 1309.5 352.5 L 1305.5 356.5" stroke-opacity="1" stroke-miterlimit="10"/><text fill="rgb(0,0,0)" stroke="none" font-family="geogebra-sans-serif, sans-serif" font-size="16px" font-style="normal" font-weight="normal" text-decoration="normal" x="659" y="17" text-anchor="start" dominant-baseline="alphabetic" fill-opacity="1">ΔW</text><path fill="none" stroke="rgb(211,47,47)" paint-order="fill stroke markers" d=" M 0 296.58088804167926 L 5.1171875 296.28196883360755 L 10.234375 295.9809724620719 L 15.351562500000114 295.6779111790975 L 20.46875 295.37279924635976 L 25.5859375 295.065653057898 L 30.703125 294.7564912695085 L 35.8203125 294.4453349351654 L 40.9375 294.1322076508366 L 46.0546875 293.81713570608 L 51.171875 293.50014824382345 L 56.2890625 293.18127742875015 L 61.40625 292.86055862473336 L 66.5234375 292.53803058178187 L 71.640625 292.21373563298243 L 76.7578125 291.8877199019435 L 81.875 291.56003352126976 L 86.9921875 291.23073086261945 L 92.109375 290.8998707789187 L 97.22656250000011 290.5675168593326 L 102.34375 290.23373769761656 L 107.4609375 289.89860717449517 L 112.578125 289.56220475474277 L 117.6953125 289.22461579966205 L 122.81250000000011 288.8859318956836 L 127.9296875 288.5462511998328 L 133.046875 288.2056788028351 L 138.1640625 287.86432711065197 L 143.28125 287.52231624526405 L 148.39843750000006 287.1797744655378 L 153.51562499999994 286.8368386090294 L 158.63281250000006 286.49365455559905 L 163.75 286.15037771372045 L 168.8671875 285.80717353038307 L 173.98437500000006 285.4642180254902 L 179.10156249999994 285.12169835166003 L 184.21875000000006 284.7798133803328 L 189.3359375 284.4387743150806 L 194.453125 284.09880533299645 L 199.5703125 283.76014425502177 L 204.6875 283.42304324603094 L 209.80468750000006 283.08776954545294 L 214.921875 282.75460622915074 L 220.0390625 282.423853003212 L 225.15625 282.095827030215 L 230.2734375 281.770863788435 L 235.390625 281.4493179643303 L 240.50781250000006 281.13156437850296 L 245.625 280.81799894516064 L 250.7421875 280.5090396649064 L 255.859375 280.20512765045873 L 260.9765625 279.9067281846385 L 266.09375000000006 279.6143318096646 L 271.2109375 279.32845544645727 L 276.328125 279.049643542264 L 281.44531250000006 278.7784692444877 L 286.5625 278.51553559810975 L 291.6796875 278.2614767635521 L 296.796875 278.01695925121413 L 301.9140625 277.7826831682404 L 307.03125 277.55938347232467 L 312.1484375 277.3478312265257 L 317.265625 277.1488348481587 L 322.38281250000006 276.9632413438229 L 327.5 276.7919375215395 L 332.6171875 276.6358511697775 L 337.734375 276.495952191867 L 342.8515625 276.37325368290465 L 347.96875000000006 276.2688129347705 L 353.0859375 276.1837323532803 L 358.203125 276.11916026981146 L 363.3203125 276.0762916279508 L 368.4375 276.05636852384544 L 373.5546875 276.06068057698457 L 378.671875 276.090565106133 L 383.7890625 276.14740708307806 L 388.90625 276.2326388347777 L 394.0234375 276.34773946242683 L 399.140625 276.494233943933 L 404.2578125 276.6736918843492 L 409.375 276.8877258770018 L 414.4921875 277.13798943643053 L 419.609375 277.4261744628896 L 424.7265625 277.754008197122 L 429.84375 278.12324962348896 L 434.9609375 278.5356852794099 L 440.078125 278.99312442954124 L 445.1953125 279.4973935643035 L 450.3125 280.0503301843653 L 455.4296875 280.65377583563264 L 460.546875 281.30956836328414 L 465.6640625 282.01953335856354 L 470.78125 282.78547477849634 L 475.8984375 283.60916472654765 L 481.01562500000006 284.49233239156604 L 486.1328125 285.43665215324 L 491.25 286.4437308747587 L 496.3671875 287.5150944174366 L 501.484375 288.65217342768045 L 506.60156250000006 289.8562884637715 L 511.71875 291.12863454835053 L 516.8359375 292.47026525202347 L 521.953125 293.8820764338597 L 527.0703125 295.3647897853878 L 532.1875 296.9189363455546 L 537.3046875 298.54484017450153 L 542.421875 300.2426023933392 L 547.5390625 302.01208581471883 L 552.65625 303.8529004042136 L 557.7734375 305.76438982460223 L 562.890625 307.74561932335484 L 568.0078125 309.795365227231 L 573.125 311.9121063062505 L 578.2421875 314.09401726178703 L 583.359375 316.3389645797032 L 588.4765625 318.6445049689733 L 593.59375 321.00788657899756 L 598.7109375 323.4260531548918 L 603.828125 325.89565124976184 L 608.9453125 328.4130405669298 L 614.0625 330.97430745409696 L 619.1796875 333.5752815165948 L 624.296875 336.2115552594891 L 629.4140625 338.8785066098549 L 634.53125 341.57132411265826 L 639.6484375 344.2850345380708 L 644.765625 347.0145325864179 L 649.8828125 349.754612330975 L 655 352.50000000000045 L 660.1171875 355.24538766902583 L 665.234375 357.98546741358297 L 670.3515625 360.71496546193003 L 675.46875 363.4286758873426 L 680.5859375 366.12149339014593 L 685.703125 368.7884447405117 L 690.8203125 371.42471848340597 L 695.9375 374.02569254590384 L 701.0546875 376.58695943307094 L 706.171875 379.10434875023896 L 711.2890625 381.573946845109 L 716.40625 383.9921134210032 L 721.5234375 386.35549503102743 L 726.640625 388.6610354202975 L 731.7578125 390.90598273821365 L 736.875 393.0878936937501 L 741.9921875 395.2046347727696 L 747.109375 397.2543806766458 L 752.2265625 399.2356101753984 L 757.34375 401.147099595787 L 762.4609375 402.9879141852817 L 767.578125 404.7573976066613 L 772.6953125 406.455159825499 L 777.8125 408.08106365444587 L 782.9296875 409.63521021461264 L 788.046875 411.1179235661407 L 793.1640625 412.5297347479769 L 798.28125 413.8713654516498 L 803.3984375 415.14371153622886 L 808.515625 416.34782657231983 L 813.6328125 417.48490558256367 L 818.75 418.55626912524156 L 823.8671875 419.5633478467602 L 828.984375 420.5076676084342 L 834.1015625 421.3908352734526 L 839.21875 422.2145252215038 L 844.3359375 422.9804666414366 L 849.453125 423.69043163671597 L 854.5703125 424.34622416436747 L 859.6875 424.9496698156348 L 864.8046875 425.50260643569663 L 869.921875 426.0068755704588 L 875.0390625 426.46431472059015 L 880.15625 426.87675037651104 L 885.2734375 427.245991802878 L 890.390625 427.5738255371104 L 895.5078125 427.86201056356947 L 900.625 428.1122741229982 L 905.7421875 428.3263081156508 L 910.859375 428.50576605606693 L 915.9765625 428.6522605375731 L 921.09375 428.76736116522227 L 926.2109374999999 428.8525929169219 L 931.328125 428.90943489386694 L 936.4453125 428.9393194230153 L 941.5625 428.94363147615445 L 946.6796875 428.9237083720491 L 951.7968749999999 428.8808397301884 L 956.9140625 428.81626764671955 L 962.03125 428.7311870652294 L 967.1484375 428.6267463170951 L 972.265625 428.5040478081329 L 977.3828124999999 428.36414883022235 L 982.5 428.2080624784603 L 987.6171875 428.03675865617686 L 992.734375 427.8511651518412 L 997.8515625 427.65216877347405 L 1002.96875 427.44061652767516 L 1008.0859375 427.2173168317594 L 1013.203125 426.9830407487857 L 1018.3203125 426.7385232364477 L 1023.4375 426.48446440189 L 1028.5546875 426.22153075551205 L 1033.671875 425.9503564577358 L 1038.7890625 425.6715445535425 L 1043.90625 425.3856681903352 L 1049.0234375 425.0932718153613 L 1054.140625 424.79487234954104 L 1059.2578125 424.49096033509335 L 1064.375 424.18200105483913 L 1069.4921875 423.8684356214968 L 1074.609375 423.55068203566947 L 1079.7265625 423.22913621156476 L 1084.84375 422.9041729697848 L 1089.9609375 422.57614699678777 L 1095.078125 422.245393770849 L 1100.1953125 421.9122304545469 L 1105.3125 421.57695675396883 L 1110.4296875 421.239855744978 L 1115.546875 420.9011946670033 L 1120.6640625 420.56122568491924 L 1125.78125 420.2201866196669 L 1130.8984375 419.87830164833974 L 1136.015625 419.5357819745096 L 1141.1328125 419.1928264696167 L 1146.25 418.84962228627927 L 1151.3671875 418.5063454444007 L 1156.484375 418.1631613909703 L 1161.6015625 417.82022553446194 L 1166.71875 417.4776837547357 L 1171.8359375 417.1356728893478 L 1176.953125 416.79432119716466 L 1182.0703125 416.453748800167 L 1187.1875 416.1140681043162 L 1192.3046875 415.7753842003377 L 1197.421875 415.437795245257 L 1202.5390625 415.1013928255046 L 1207.65625 414.7662623023832 L 1212.7734375 414.43248314066716 L 1217.890625 414.1001292210811 L 1223.0078125 413.7692691373803 L 1228.125 413.43996647873 L 1233.2421875 413.11228009805626 L 1238.359375 412.78626436701734 L 1243.4765625 412.4619694182179 L 1248.59375 412.1394413752664 L 1253.7109375 411.8187225712496 L 1258.828125 411.4998517561763 L 1263.9453125 411.18286429391975 L 1269.0625 410.86779234916315 L 1274.1796875 410.55466506483435 L 1279.296875 410.24350873049127 L 1284.4140625 409.9343469421018 L 1289.53125 409.62720075364 L 1294.6484375 409.3220888209022 L 1299.765625 409.01902753792785 L 1304.8828125 408.7180311663922 L 1310 408.4191119583205" stroke-opacity="0.8" stroke-linecap="round" stroke-linejoin="round" stroke-miterlimit="10" stroke-width="2.5"/><text fill="rgb(211,47,47)" stroke="none" font-family="geogebra-sans-serif, sans-serif" font-size="16px" font-style="normal" font-weight="normal" text-decoration="normal" x="12" y="317" text-anchor="start" dominant-baseline="alphabetic" fill-opacity="1">Gravity (l=0.1, m=1.25)</text><text fill="none" stroke="rgb(255,255,255)" font-family="geogebra-sans-serif, sans-serif" font-size="16px" font-style="normal" font-weight="normal" text-decoration="normal" x="12" y="317" text-anchor="start" dominant-baseline="alphabetic" stroke-opacity="1" stroke-linejoin="bevel" stroke-miterlimit="10" stroke-width="3">Gravity (l=0.1, m=1.25)</text><text fill="rgb(211,47,47)" stroke="none" font-family="geogebra-sans-serif, sans-serif" font-size="16px" font-style="normal" font-weight="normal" text-decoration="normal" x="12" y="317" text-anchor="start" dominant-baseline="alphabetic" fill-opacity="1">Gravity (l=0.1, m=1.25)</text><path fill="none" stroke="rgb(101,87,210)" paint-order="fill stroke markers" d=" M 0 237.80879831225707 L 5.1171875 237.49893140384177 L 10.234375 237.19211316215507 L 15.351562500000114 236.8885199440059 L 20.46875 236.5883340721163 L 25.5859375 236.291744001653 L 30.703125 235.9989444896434 L 35.8203125 235.71013676718366 L 40.9375 235.42552871433173 L 46.0546875 235.14533503756036 L 51.171875 234.86977744962925 L 56.2890625 234.5990848517151 L 61.40625 234.33349351761865 L 66.5234375 234.0732472798462 L 71.640625 233.81859771733912 L 76.7578125 233.5698043446007 L 81.875 233.32713480194263 L 86.9921875 233.09086504654513 L 92.109375 232.86127954399475 L 97.22656250000011 232.63867145993243 L 102.34375 232.42334285140856 L 107.4609375 232.21560485750865 L 112.578125 232.0157778887721 L 117.6953125 231.82419181488928 L 122.81250000000011 231.64118615011677 L 127.9296875 231.46711023580835 L 133.046875 231.3023234194114 L 138.1640625 231.14719522922837 L 143.28125 231.00210554419218 L 148.39843750000006 230.86744475785048 L 153.51562499999994 230.74361393569637 L 158.63281250000006 230.63102496492473 L 163.75 230.53010069563283 L 168.8671875 230.44127507241888 L 173.98437500000006 230.36499325526864 L 179.10156249999994 230.30171172854978 L 184.21875000000006 230.25189839686664 L 189.3359375 230.2160326664542 L 194.453125 230.19460551071745 L 199.5703125 230.1881195184484 L 204.6875 230.19708892317533 L 209.80468750000006 230.22203961202354 L 214.921875 230.26350911238796 L 220.0390625 230.32204655464201 L 225.15625 230.39821260902806 L 230.2734375 230.49257939479958 L 235.390625 230.60573035960886 L 240.50781250000006 230.73826012706226 L 245.625 230.8907743102928 L 250.7421875 231.06388928933399 L 255.859375 231.25823195001533 L 260.9765625 231.47443938204307 L 266.09375000000006 231.71315853387688 L 271.2109375 231.97504582197024 L 276.328125 232.2607666919064 L 281.44531250000006 232.57099512893433 L 286.5625 232.90641311539522 L 291.6796875 233.26771003252708 L 296.796875 233.6555820041445 L 301.9140625 234.07073117971873 L 307.03125 234.51386495442478 L 312.1484375 234.98569512378486 L 317.265625 235.48693697061927 L 322.38281250000006 236.0183082821192 L 327.5 236.58052829498445 L 332.6171875 237.1743165667216 L 337.734375 237.8003917713787 L 342.8515625 238.4594704182016 L 347.96875000000006 239.15226549193693 L 353.0859375 239.87948501377912 L 358.203125 240.6418305222626 L 363.3203125 241.43999547374173 L 368.4375 242.27466356247615 L 373.5546875 243.14650696075165 L 378.671875 244.05618447991594 L 383.7890625 245.00433965369552 L 388.90625 245.99159874568545 L 394.0234375 247.0185686834621 L 399.140625 248.08583492236812 L 404.2578125 249.19395924264978 L 409.375 250.34347748428866 L 414.4921875 251.53489722456501 L 419.609375 252.76869540410945 L 424.7265625 254.04531590794159 L 429.84375 255.36516710875713 L 434.9609375 256.72861938049704 L 440.078125 258.13600259101514 L 445.1953125 259.5876035834425 L 450.3125 261.0836636566204 L 455.4296875 262.6243760557361 L 460.546875 264.20988348503107 L 465.6640625 265.84027565515544 L 470.78125 267.515586878405 L 475.8984375 269.2357937256855 L 481.01562500000006 271.0008127595943 L 486.1328125 272.8104983584816 L 491.25 274.66464064674153 L 496.3671875 276.5629635468713 L 501.484375 278.5051229690256 L 506.60156250000006 280.4907051538603 L 511.71875 282.51922518440074 L 516.8359375 284.5901256824827 L 521.953125 286.7027757049756 L 527.0703125 288.8564698545181 L 532.1875 291.0504276188591 L 537.3046875 293.2837929521038 L 542.421875 295.55563411021234 L 547.5390625 297.86494375198885 L 552.65625 300.21063931553255 L 557.7734375 302.59156367870406 L 562.890625 305.0064861106014 L 568.0078125 307.4541035193402 L 573.125 309.9330419996187 L 578.2421875 312.44185868161514 L 583.359375 314.9790438807478 L 588.4765625 317.54302354573247 L 593.59375 320.1321620002211 L 598.7109375 322.7447649711272 L 603.828125 325.37908289454936 L 608.9453125 328.03331448803226 L 614.0625 330.7056105757676 L 619.1796875 333.3940781512673 L 624.296875 336.09678466006505 L 629.4140625 338.8117624831348 L 634.53125 341.53701359999377 L 639.6484375 344.27051440889073 L 644.765625 347.01022068010246 L 649.8828125 349.75407261717714 L 655 352.50000000000045 L 660.1171875 355.2459273828237 L 665.234375 357.9897793198984 L 670.3515625 360.7294855911101 L 675.46875 363.4629864000071 L 680.5859375 366.188237516866 L 685.703125 368.9032153399358 L 690.8203125 371.60592184873354 L 695.9375 374.29438942423326 L 701.0546875 376.96668551196854 L 706.171875 379.6209171054515 L 711.2890625 382.25523502887364 L 716.40625 384.8678379997797 L 721.5234375 387.45697645426833 L 726.640625 390.020956119253 L 731.7578125 392.55814131838565 L 736.875 395.06695800038204 L 741.9921875 397.54589648066053 L 747.109375 399.9935138893993 L 752.2265625 402.4084363212967 L 757.34375 404.7893606844682 L 762.4609375 407.1350562480119 L 767.578125 409.4443658897884 L 772.6953125 411.7162070478969 L 777.8125 413.94957238114154 L 782.9296875 416.1435301454826 L 788.046875 418.29722429502505 L 793.1640625 420.4098743175179 L 798.28125 422.48077481559983 L 803.3984375 424.5092948461403 L 808.515625 426.494877030975 L 813.6328125 428.4370364531293 L 818.75 430.335359353259 L 823.8671875 432.1895016415189 L 828.984375 433.9991872404063 L 834.1015625 435.76420627431503 L 839.21875 437.4844131215955 L 844.3359375 439.159724344845 L 849.453125 440.7901165149694 L 854.5703125 442.3756239442643 L 859.6875 443.91633634338007 L 864.8046875 445.41239641655795 L 869.921875 446.86399740898526 L 875.0390625 448.27138061950336 L 880.15625 449.6348328912432 L 885.2734375 450.95468409205876 L 890.390625 452.23130459589095 L 895.5078125 453.4651027754353 L 900.625 454.65652251571163 L 905.7421875 455.8060407573505 L 910.859375 456.91416507763216 L 915.9765625 457.9814313165382 L 921.09375 459.0084012543148 L 926.2109374999999 459.9956603463047 L 931.328125 460.9438155200843 L 936.4453125 461.8534930392485 L 941.5625 462.725336437524 L 946.6796875 463.56000452625847 L 951.7968749999999 464.35816947773753 L 956.9140625 465.120514986221 L 962.03125 465.84773450806324 L 967.1484375 466.5405295817985 L 972.265625 467.1996082286214 L 977.3828124999999 467.8256834332785 L 982.5 468.41947170501567 L 987.6171875 468.9816917178809 L 992.734375 469.51306302938076 L 997.8515625 470.0143048762152 L 1002.96875 470.4861350455752 L 1008.0859375 470.9292688202813 L 1013.203125 471.34441799585557 L 1018.3203125 471.732289967473 L 1023.4375 472.0935868846048 L 1028.5546875 472.4290048710657 L 1033.671875 472.73923330809356 L 1038.7890625 473.02495417802976 L 1043.90625 473.2868414661231 L 1049.0234375 473.5255606179569 L 1054.140625 473.74176804998467 L 1059.2578125 473.93611071066596 L 1064.375 474.10922568970716 L 1069.4921875 474.2617398729377 L 1074.609375 474.3942696403911 L 1079.7265625 474.5074206052003 L 1084.84375 474.6017873909718 L 1089.9609375 474.6779534453579 L 1095.078125 474.7364908876119 L 1100.1953125 474.77796038797635 L 1105.3125 474.80291107682456 L 1110.4296875 474.8118804815515 L 1115.546875 474.80539448928243 L 1120.6640625 474.7839673335457 L 1125.78125 474.74810160313325 L 1130.8984375 474.6982882714501 L 1136.015625 474.63500674473124 L 1141.1328125 474.55872492758095 L 1146.25 474.469899304367 L 1151.3671875 474.3689750350751 L 1156.484375 474.25638606430346 L 1161.6015625 474.13255524214935 L 1166.71875 473.9978944558077 L 1171.8359375 473.85280477077146 L 1176.953125 473.6976765805884 L 1182.0703125 473.5328897641915 L 1187.1875 473.35881384988306 L 1192.3046875 473.17580818511055 L 1197.421875 472.9842221112277 L 1202.5390625 472.7843951424912 L 1207.65625 472.5766571485912 L 1212.7734375 472.36132854006735 L 1217.890625 472.138720456005 L 1223.0078125 471.90913495345467 L 1228.125 471.67286519805714 L 1233.2421875 471.4301956553991 L 1238.359375 471.1814022826607 L 1243.4765625 470.92675272015356 L 1248.59375 470.6665064823811 L 1253.7109375 470.4009151482847 L 1258.828125 470.13022255037055 L 1263.9453125 469.8546649624394 L 1269.0625 469.5744712856681 L 1274.1796875 469.2898632328161 L 1279.296875 469.00105551035637 L 1284.4140625 468.7082559983468 L 1289.53125 468.41166592788346 L 1294.6484375 468.11148005599387 L 1299.765625 467.8078868378447 L 1304.8828125 467.501068596158 L 1310 467.1912016877427" stroke-opacity="0.8" stroke-linecap="round" stroke-linejoin="round" stroke-miterlimit="10" stroke-width="2.5"/><text fill="rgb(101,87,210)" stroke="none" font-family="geogebra-sans-serif, sans-serif" font-size="16px" font-style="normal" font-weight="normal" text-decoration="normal" x="6" y="258" text-anchor="start" dominant-baseline="alphabetic" fill-opacity="1">Gravity (l=0.1, m=2)</text><text fill="none" stroke="rgb(255,255,255)" font-family="geogebra-sans-serif, sans-serif" font-size="16px" font-style="normal" font-weight="normal" text-decoration="normal" x="6" y="258" text-anchor="start" dominant-baseline="alphabetic" stroke-opacity="1" stroke-linejoin="bevel" stroke-miterlimit="10" stroke-width="3">Gravity (l=0.1, m=2)</text><text fill="rgb(101,87,210)" stroke="none" font-family="geogebra-sans-serif, sans-serif" font-size="16px" font-style="normal" font-weight="normal" text-decoration="normal" x="6" y="258" text-anchor="start" dominant-baseline="alphabetic" fill-opacity="1">Gravity (l=0.1, m=2)</text><path fill="none" stroke="rgb(46,125,50)" paint-order="fill stroke markers" d=" M -5 -1.7063852047808044 L 1315 706.7063852047816" stroke-opacity="0.8" stroke-linecap="round" stroke-linejoin="round" stroke-miterlimit="10" stroke-width="2.5"/><text fill="rgb(46,125,50)" stroke="none" font-family="geogebra-sans-serif, sans-serif" font-size="16px" font-style="normal" font-weight="normal" text-decoration="normal" x="62" y="41" text-anchor="start" dominant-baseline="alphabetic" fill-opacity="1">SGD (l=0.1)</text><text fill="none" stroke="rgb(255,255,255)" font-family="geogebra-sans-serif, sans-serif" font-size="16px" font-style="normal" font-weight="normal" text-decoration="normal" x="62" y="41" text-anchor="start" dominant-baseline="alphabetic" stroke-opacity="1" stroke-linejoin="bevel" stroke-miterlimit="10" stroke-width="3">SGD (l=0.1)</text><text fill="rgb(46,125,50)" stroke="none" font-family="geogebra-sans-serif, sans-serif" font-size="16px" font-style="normal" font-weight="normal" text-decoration="normal" x="62" y="41" text-anchor="start" dominant-baseline="alphabetic" fill-opacity="1">SGD (l=0.1)</text><path fill="rgb(97,97,97)" stroke="none" paint-order="stroke fill markers" d=" M 204.18738339738923 230.1880763200429 C 204.18738339738923 232.9495000691969 201.9488071465432 235.1880763200429 199.18738339738923 235.1880763200429 C 196.42595964823525 235.1880763200429 194.18738339738923 232.9495000691969 194.18738339738923 230.1880763200429 C 194.18738339738923 227.42665257088893 196.42595964823525 225.1880763200429 199.18738339738923 225.1880763200429 C 201.9488071465432 225.1880763200429 204.18738339738923 227.42665257088893 204.18738339738923 230.1880763200429 Z" fill-opacity="1"/><path fill="none" stroke="rgb(0,0,0)" paint-order="fill stroke markers" d=" M 204.18738339738923 230.1880763200429 C 204.18738339738923 232.9495000691969 201.9488071465432 235.1880763200429 199.18738339738923 235.1880763200429 C 196.42595964823525 235.1880763200429 194.18738339738923 232.9495000691969 194.18738339738923 230.1880763200429 C 194.18738339738923 227.42665257088893 196.42595964823525 225.1880763200429 199.18738339738923 225.1880763200429 C 201.9488071465432 225.1880763200429 204.18738339738923 227.42665257088893 204.18738339738923 230.1880763200429 Z" stroke-opacity="1" stroke-linecap="round" stroke-linejoin="round" stroke-miterlimit="10"/><text fill="rgb(97,97,97)" stroke="none" font-family="geogebra-sans-serif, sans-serif" font-size="16px" font-style="normal" font-weight="normal" text-decoration="normal" x="203" y="220" text-anchor="start" dominant-baseline="alphabetic" fill-opacity="1">(-2, 0.1)</text><text fill="none" stroke="rgb(255,255,255)" font-family="geogebra-sans-serif, sans-serif" font-size="16px" font-style="normal" font-weight="normal" text-decoration="normal" x="203" y="220" text-anchor="start" dominant-baseline="alphabetic" stroke-opacity="1" stroke-linejoin="bevel" stroke-miterlimit="10" stroke-width="3">(-2, 0.1)</text><text fill="rgb(97,97,97)" stroke="none" font-family="geogebra-sans-serif, sans-serif" font-size="16px" font-style="normal" font-weight="normal" text-decoration="normal" x="203" y="220" text-anchor="start" dominant-baseline="alphabetic" fill-opacity="1">(-2, 0.1)</text><path fill="rgb(97,97,97)" stroke="none" paint-order="stroke fill markers" d=" M 375.1171146233679 276.05504770002676 C 375.1171146233679 278.8164714491807 372.87853837252186 281.05504770002676 370.1171146233679 281.05504770002676 C 367.35569087421396 281.05504770002676 365.1171146233679 278.8164714491807 365.1171146233679 276.05504770002676 C 365.1171146233679 273.2936239508728 367.35569087421396 271.05504770002676 370.1171146233679 271.05504770002676 C 372.87853837252186 271.05504770002676 375.1171146233679 273.2936239508728 375.1171146233679 276.05504770002676 Z" fill-opacity="1"/><path fill="none" stroke="rgb(0,0,0)" paint-order="fill stroke markers" d=" M 375.1171146233679 276.05504770002676 C 375.1171146233679 278.8164714491807 372.87853837252186 281.05504770002676 370.1171146233679 281.05504770002676 C 367.35569087421396 281.05504770002676 365.1171146233679 278.8164714491807 365.1171146233679 276.05504770002676 C 365.1171146233679 273.2936239508728 367.35569087421396 271.05504770002676 370.1171146233679 271.05504770002676 C 372.87853837252186 271.05504770002676 375.1171146233679 273.2936239508728 375.1171146233679 276.05504770002676 Z" stroke-opacity="1" stroke-linecap="round" stroke-linejoin="round" stroke-miterlimit="10"/><text fill="rgb(97,97,97)" stroke="none" font-family="geogebra-sans-serif, sans-serif" font-size="16px" font-style="normal" font-weight="normal" text-decoration="normal" x="374" y="266" text-anchor="start" dominant-baseline="alphabetic" fill-opacity="1">(-1.25, 0.0625)</text><text fill="none" stroke="rgb(255,255,255)" font-family="geogebra-sans-serif, sans-serif" font-size="16px" font-style="normal" font-weight="normal" text-decoration="normal" x="374" y="266" text-anchor="start" dominant-baseline="alphabetic" stroke-opacity="1" stroke-linejoin="bevel" stroke-miterlimit="10" stroke-width="3">(-1.25, 0.0625)</text><text fill="rgb(97,97,97)" stroke="none" font-family="geogebra-sans-serif, sans-serif" font-size="16px" font-style="normal" font-weight="normal" text-decoration="normal" x="374" y="266" text-anchor="start" dominant-baseline="alphabetic" fill-opacity="1">(-1.25, 0.0625)</text><path fill="rgb(97,97,97)" stroke="none" paint-order="stroke fill markers" d=" M 944.8828853766303 428.9449522999731 C 944.8828853766303 431.7063760491271 942.6443091257843 433.9449522999731 939.8828853766303 433.9449522999731 C 937.1214616274763 433.9449522999731 934.8828853766303 431.7063760491271 934.8828853766303 428.9449522999731 C 934.8828853766303 426.1835285508192 937.1214616274763 423.9449522999731 939.8828853766303 423.9449522999731 C 942.6443091257843 423.9449522999731 944.8828853766303 426.1835285508192 944.8828853766303 428.9449522999731 Z" fill-opacity="1"/><path fill="none" stroke="rgb(0,0,0)" paint-order="fill stroke markers" d=" M 944.8828853766303 428.9449522999731 C 944.8828853766303 431.7063760491271 942.6443091257843 433.9449522999731 939.8828853766303 433.9449522999731 C 937.1214616274763 433.9449522999731 934.8828853766303 431.7063760491271 934.8828853766303 428.9449522999731 C 934.8828853766303 426.1835285508192 937.1214616274763 423.9449522999731 939.8828853766303 423.9449522999731 C 942.6443091257843 423.9449522999731 944.8828853766303 426.1835285508192 944.8828853766303 428.9449522999731 Z" stroke-opacity="1" stroke-linecap="round" stroke-linejoin="round" stroke-miterlimit="10"/><text fill="rgb(97,97,97)" stroke="none" font-family="geogebra-sans-serif, sans-serif" font-size="16px" font-style="normal" font-weight="normal" text-decoration="normal" x="944" y="419" text-anchor="start" dominant-baseline="alphabetic" fill-opacity="1">B = (1.25, -0.0625)</text><text fill="none" stroke="rgb(255,255,255)" font-family="geogebra-sans-serif, sans-serif" font-size="16px" font-style="normal" font-weight="normal" text-decoration="normal" x="944" y="419" text-anchor="start" dominant-baseline="alphabetic" stroke-opacity="1" stroke-linejoin="bevel" stroke-miterlimit="10" stroke-width="3">B = (1.25, -0.0625)</text><text fill="rgb(97,97,97)" stroke="none" font-family="geogebra-sans-serif, sans-serif" font-size="16px" font-style="normal" font-weight="normal" text-decoration="normal" x="944" y="419" text-anchor="start" dominant-baseline="alphabetic" fill-opacity="1">B = (1.25, -0.0625)</text><path fill="rgb(97,97,97)" stroke="none" paint-order="stroke fill markers" d=" M 1115.812616602609 474.811923679957 C 1115.812616602609 477.5733474291109 1113.574040351763 479.811923679957 1110.812616602609 479.811923679957 C 1108.0511928534552 479.811923679957 1105.812616602609 477.5733474291109 1105.812616602609 474.811923679957 C 1105.812616602609 472.050499930803 1108.0511928534552 469.811923679957 1110.812616602609 469.811923679957 C 1113.574040351763 469.811923679957 1115.812616602609 472.050499930803 1115.812616602609 474.811923679957 Z" fill-opacity="1"/><path fill="none" stroke="rgb(0,0,0)" paint-order="fill stroke markers" d=" M 1115.812616602609 474.811923679957 C 1115.812616602609 477.5733474291109 1113.574040351763 479.811923679957 1110.812616602609 479.811923679957 C 1108.0511928534552 479.811923679957 1105.812616602609 477.5733474291109 1105.812616602609 474.811923679957 C 1105.812616602609 472.050499930803 1108.0511928534552 469.811923679957 1110.812616602609 469.811923679957 C 1113.574040351763 469.811923679957 1115.812616602609 472.050499930803 1115.812616602609 474.811923679957 Z" stroke-opacity="1" stroke-linecap="round" stroke-linejoin="round" stroke-miterlimit="10"/><text fill="rgb(97,97,97)" stroke="none" font-family="geogebra-sans-serif, sans-serif" font-size="16px" font-style="normal" font-weight="normal" text-decoration="normal" x="1115" y="465" text-anchor="start" dominant-baseline="alphabetic" fill-opacity="1">(2, -0.1)</text><text fill="none" stroke="rgb(255,255,255)" font-family="geogebra-sans-serif, sans-serif" font-size="16px" font-style="normal" font-weight="normal" text-decoration="normal" x="1115" y="465" text-anchor="start" dominant-baseline="alphabetic" stroke-opacity="1" stroke-linejoin="bevel" stroke-miterlimit="10" stroke-width="3">(2, -0.1)</text><text fill="rgb(97,97,97)" stroke="none" font-family="geogebra-sans-serif, sans-serif" font-size="16px" font-style="normal" font-weight="normal" text-decoration="normal" x="1115" y="465" text-anchor="start" dominant-baseline="alphabetic" fill-opacity="1">(2, -0.1)</text></g></g></svg>