<svg version="1.1" xmlns="http://www.w3.org/2000/svg" xmlns:xlink="http://www.w3.org/1999/xlink" width="986" height="705"><defs><clipPath id="lICRIIomwpCy"><path fill="none" stroke="none" d=" M 0 0 L 986 0 L 986 705 L 0 705 L 0 0 Z"/></clipPath></defs><g transform="scale(1,1)" clip-path="url(#lICRIIomwpCy)"><g><rect fill="rgb(255,255,255)" stroke="none" x="0" y="0" width="986" height="705" fill-opacity="1"/><path fill="none" stroke="rgb(192,192,192)" paint-order="fill stroke markers" d=" M 20.5 0.5 L 20.5 705.5 M 20.5 0.5 L 20.5 705.5 M 67.5 0.5 L 67.5 705.5 M 114.5 0.5 L 114.5 705.5 M 162.5 0.5 L 162.5 705.5 M 209.5 0.5 L 209.5 705.5 M 256.5 0.5 L 256.5 705.5 M 303.5 0.5 L 303.5 705.5 M 351.5 0.5 L 351.5 705.5 M 398.5 0.5 L 398.5 705.5 M 445.5 0.5 L 445.5 705.5 M 540.5 0.5 L 540.5 705.5 M 587.5 0.5 L 587.5 705.5 M 634.5 0.5 L 634.5 705.5 M 682.5 0.5 L 682.5 705.5 M 729.5 0.5 L 729.5 705.5 M 776.5 0.5 L 776.5 705.5 M 823.5 0.5 L 823.5 705.5 M 871.5 0.5 L 871.5 705.5 M 918.5 0.5 L 918.5 705.5 M 965.5 0.5 L 965.5 705.5" stroke-opacity="1" stroke-linecap="round" stroke-linejoin="round" stroke-miterlimit="10"/><path fill="none" stroke="rgb(192,192,192)" paint-order="fill stroke markers" d=" M 1.5 0.5 L 1.5 705.5 M 10.5 0.5 L 10.5 705.5 M 29.5 0.5 L 29.5 705.5 M 39.5 0.5 L 39.5 705.5 M 48.5 0.5 L 48.5 705.5 M 58.5 0.5 L 58.5 705.5 M 76.5 0.5 L 76.5 705.5 M 86.5 0.5 L 86.5 705.5 M 95.5 0.5 L 95.5 705.5 M 105.5 0.5 L 105.5 705.5 M 124.5 0.5 L 124.5 705.5 M 133.5 0.5 L 133.5 705.5 M 143.5 0.5 L 143.5 705.5 M 152.5 0.5 L 152.5 705.5 M 171.5 0.5 L 171.5 705.5 M 180.5 0.5 L 180.5 705.5 M 190.5 0.5 L 190.5 705.5 M 199.5 0.5 L 199.5 705.5 M 218.5 0.5 L 218.5 705.5 M 228.5 0.5 L 228.5 705.5 M 237.5 0.5 L 237.5 705.5 M 247.5 0.5 L 247.5 705.5 M 266.5 0.5 L 266.5 705.5 M 275.5 0.5 L 275.5 705.5 M 284.5 0.5 L 284.5 705.5 M 294.5 0.5 L 294.5 705.5 M 313.5 0.5 L 313.5 705.5 M 322.5 0.5 L 322.5 705.5 M 332.5 0.5 L 332.5 705.5 M 341.5 0.5 L 341.5 705.5 M 360.5 0.5 L 360.5 705.5 M 370.5 0.5 L 370.5 705.5 M 379.5 0.5 L 379.5 705.5 M 388.5 0.5 L 388.5 705.5 M 407.5 0.5 L 407.5 705.5 M 417.5 0.5 L 417.5 705.5 M 426.5 0.5 L 426.5 705.5 M 436.5 0.5 L 436.5 705.5 M 455.5 0.5 L 455.5 705.5 M 464.5 0.5 L 464.5 705.5 M 474.5 0.5 L 474.5 705.5 M 483.5 0.5 L 483.5 705.5 M 502.5 0.5 L 502.5 705.5 M 511.5 0.5 L 511.5 705.5 M 521.5 0.5 L 521.5 705.5 M 530.5 0.5 L 530.5 705.5 M 549.5 0.5 L 549.5 705.5 M 559.5 0.5 L 559.5 705.5 M 568.5 0.5 L 568.5 705.5 M 578.5 0.5 L 578.5 705.5 M 597.5 0.5 L 597.5 705.5 M 606.5 0.5 L 606.5 705.5 M 615.5 0.5 L 615.5 705.5 M 625.5 0.5 L 625.5 705.5 M 644.5 0.5 L 644.5 705.5 M 653.5 0.5 L 653.5 705.5 M 663.5 0.5 L 663.5 705.5 M 672.5 0.5 L 672.5 705.5 M 691.5 0.5 L 691.5 705.5 M 701.5 0.5 L 701.5 705.5 M 710.5 0.5 L 710.5 705.5 M 719.5 0.5 L 719.5 705.5 M 738.5 0.5 L 738.5 705.5 M 748.5 0.5 L 748.5 705.5 M 757.5 0.5 L 757.5 705.5 M 767.5 0.5 L 767.5 705.5 M 786.5 0.5 L 786.5 705.5 M 795.5 0.5 L 795.5 705.5 M 805.5 0.5 L 805.5 705.5 M 814.5 0.5 L 814.5 705.5 M 833.5 0.5 L 833.5 705.5 M 842.5 0.5 L 842.5 705.5 M 852.5 0.5 L 852.5 705.5 M 861.5 0.5 L 861.5 705.5 M 880.5 0.5 L 880.5 705.5 M 890.5 0.5 L 890.5 705.5 M 899.5 0.5 L 899.5 705.5 M 909.5 0.5 L 909.5 705.5 M 927.5 0.5 L 927.5 705.5 M 937.5 0.5 L 937.5 705.5 M 946.5 0.5 L 946.5 705.5 M 956.5 0.5 L 956.5 705.5 M 975.5 0.5 L 975.5 705.5 M 984.5 0.5 L 984.5 705.5" stroke-opacity="0.23529411764705882" stroke-linecap="round" stroke-linejoin="round" stroke-miterlimit="10"/><path fill="none" stroke="rgb(192,192,192)" paint-order="fill stroke markers" d=" M 0.5 14.5 L 986.5 14.5 M 0.5 14.5 L 986.5 14.5 M 0.5 82.5 L 986.5 82.5 M 0.5 149.5 L 986.5 149.5 M 0.5 217.5 L 986.5 217.5 M 0.5 284.5 L 986.5 284.5 M 0.5 420.5 L 986.5 420.5 M 0.5 487.5 L 986.5 487.5 M 0.5 555.5 L 986.5 555.5 M 0.5 622.5 L 986.5 622.5 M 0.5 690.5 L 986.5 690.5" stroke-opacity="1" stroke-linecap="round" stroke-linejoin="round" stroke-miterlimit="10"/><path fill="none" stroke="rgb(192,192,192)" paint-order="fill stroke markers" d=" M 0.5 0.5 L 986.5 0.5 M 0.5 0.5 L 986.5 0.5 M 0.5 27.5 L 986.5 27.5 M 0.5 41.5 L 986.5 41.5 M 0.5 55.5 L 986.5 55.5 M 0.5 68.5 L 986.5 68.5 M 0.5 95.5 L 986.5 95.5 M 0.5 109.5 L 986.5 109.5 M 0.5 122.5 L 986.5 122.5 M 0.5 136.5 L 986.5 136.5 M 0.5 163.5 L 986.5 163.5 M 0.5 176.5 L 986.5 176.5 M 0.5 190.5 L 986.5 190.5 M 0.5 203.5 L 986.5 203.5 M 0.5 230.5 L 986.5 230.5 M 0.5 244.5 L 986.5 244.5 M 0.5 257.5 L 986.5 257.5 M 0.5 271.5 L 986.5 271.5 M 0.5 298.5 L 986.5 298.5 M 0.5 311.5 L 986.5 311.5 M 0.5 325.5 L 986.5 325.5 M 0.5 338.5 L 986.5 338.5 M 0.5 366.5 L 986.5 366.5 M 0.5 379.5 L 986.5 379.5 M 0.5 393.5 L 986.5 393.5 M 0.5 406.5 L 986.5 406.5 M 0.5 433.5 L 986.5 433.5 M 0.5 447.5 L 986.5 447.5 M 0.5 460.5 L 986.5 460.5 M 0.5 474.5 L 986.5 474.5 M 0.5 501.5 L 986.5 501.5 M 0.5 514.5 L 986.5 514.5 M 0.5 528.5 L 986.5 528.5 M 0.5 541.5 L 986.5 541.5 M 0.5 568.5 L 986.5 568.5 M 0.5 582.5 L 986.5 582.5 M 0.5 595.5 L 986.5 595.5 M 0.5 609.5 L 986.5 609.5 M 0.5 636.5 L 986.5 636.5 M 0.5 649.5 L 986.5 649.5 M 0.5 663.5 L 986.5 663.5 M 0.5 677.5 L 986.5 677.5 M 0.5 704.5 L 986.5 704.5" stroke-opacity="0.23529411764705882" stroke-linecap="round" stroke-linejoin="round" stroke-miterlimit="10"/><path fill="none" stroke="rgb(0,0,0)" paint-order="fill stroke markers" d=" M 493.5 2.5 L 493.5 705.5" stroke-opacity="1" stroke-miterlimit="10"/><path fill="none" stroke="rgb(0,0,0)" paint-order="fill stroke markers" d=" M 493.5 1.5 L 489.5 5.5" stroke-opacity="1" stroke-miterlimit="10"/><path fill="none" stroke="rgb(0,0,0)" paint-order="fill stroke markers" d=" M 493.5 1.5 L 497.5 5.5" stroke-opacity="1" stroke-miterlimit="10"/><text fill="rgb(0,0,0)" stroke="none" font-family="geogebra-sans-serif, sans-serif" font-size="16px" font-style="normal" font-weight="normal" text-decoration="normal" x="967" y="348" text-anchor="start" dominant-baseline="alphabetic" fill-opacity="1">g</text><path fill="none" stroke="rgb(0,0,0)" paint-order="fill stroke markers" d=" M 0.5 352.5 L 984.5 352.5" stroke-opacity="1" stroke-miterlimit="10"/><path fill="none" stroke="rgb(0,0,0)" paint-order="fill stroke markers" d=" M 985.5 352.5 L 981.5 348.5" stroke-opacity="1" stroke-miterlimit="10"/><path fill="none" stroke="rgb(0,0,0)" paint-order="fill stroke markers" d=" M 985.5 352.5 L 981.5 356.5" stroke-opacity="1" stroke-miterlimit="10"/><text fill="rgb(0,0,0)" stroke="none" font-family="geogebra-sans-serif, sans-serif" font-size="16px" font-style="normal" font-weight="normal" text-decoration="normal" x="498" y="17" text-anchor="start" dominant-baseline="alphabetic" fill-opacity="1">ΔW</text><path fill="none" stroke="rgb(211,47,47)" paint-order="fill stroke markers" d=" M 0 326.14047194392555 L 3.851562500000057 326.01120788808214 L 7.703125 325.88129788091965 L 11.5546875 325.75075683476734 L 15.406250000000057 325.61960084274386 L 19.2578125 325.48784724014666 L 23.109375000000057 325.3555146687805 L 26.9609375 325.222623144357 L 30.8125 325.0891941271009 L 34.66406250000006 324.9552505957051 L 38.515625 324.8208171247802 L 42.3671875 324.68591996595086 L 46.21875 324.55058713275434 L 50.07031250000006 324.41484848950347 L 53.921875 324.27873584427994 L 57.7734375 324.1422830462296 L 61.625 324.0055260873348 L 65.47656250000006 323.8685032088454 L 69.328125 323.7312550125523 L 73.1796875 323.5938245770925 L 77.03125000000006 323.4562575794783 L 80.8828125 323.3186024220463 L 84.734375 323.1809103650244 L 88.58593750000006 323.04323566491706 L 92.43750000000006 322.90563571891204 L 96.2890625 322.76817121550897 L 100.140625 322.6309062915743 L 103.9921875 322.49390869602144 L 107.84375 322.35724996031513 L 111.6953125 322.22100557599407 L 115.546875 322.0852551793992 L 119.39843750000006 321.95008274378927 L 123.25 321.8155767790137 L 127.1015625 321.68183053890317 L 130.95312500000006 321.54894223652127 L 134.8046875 321.4170152674057 L 138.65625 321.28615844090496 L 142.50781250000006 321.156486219693 L 146.359375 321.02811896751734 L 150.2109375 320.9011832052009 L 154.0625 320.7758118748833 L 157.9140625 320.6521446124436 L 161.765625 320.53032802799635 L 165.6171875 320.41051599430114 L 169.46875 320.2928699428607 L 173.32031250000006 320.17755916741487 L 177.171875 320.0647611344592 L 181.0234375 319.95466180033037 L 184.87500000000006 319.84745593430256 L 188.72656250000006 319.743347447034 L 192.578125 319.6425497235819 L 196.42968750000006 319.54528596007503 L 200.28125 319.45178950298833 L 204.1328125 319.36230418980705 L 207.984375 319.2770846896955 L 211.8359375 319.1963968425986 L 215.68750000000006 319.1205179949984 L 219.5390625 319.04973733033114 L 223.390625 318.9843561918268 L 227.24218750000006 318.9246883952817 L 231.09375 318.8710605289968 L 234.9453125 318.82381223782124 L 238.796875 318.7832964879294 L 242.64843750000003 318.74987980862807 L 246.50000000000003 318.72394250714063 L 250.3515625 318.7058788519521 L 254.20312500000003 318.69609721991327 L 258.0546875 318.69502020191055 L 261.90625 318.70308466149794 L 265.7578125 318.7207417404734 L 269.609375 318.7484568049613 L 273.4609375 318.7867093251411 L 277.3125 318.83599268134725 L 281.1640625 318.89681388886197 L 285.015625 318.96969323333536 L 288.8671875 319.05516380841306 L 292.71875 319.1537709468292 L 296.5703125 319.26607153595273 L 300.421875 319.3926332085655 L 304.2734375 319.53403339951365 L 308.125 319.69085825883144 L 311.9765625 319.8637014119942 L 315.828125 320.05316255814614 L 319.6796875 320.2598458974719 L 323.53125 320.4843583793718 L 327.3828125 320.7273077637706 L 331.234375 320.98930048875945 L 335.0859375 321.2709393388642 L 338.9375 321.5728209095641 L 342.7890625 321.8955328652734 L 346.640625 322.2396509898583 L 350.4921875 322.6057360309053 L 354.34375 322.9943303413922 L 358.1953125 323.40595432514095 L 362.046875 323.8411026954528 L 365.8984375 324.30024055962497 L 369.75 324.78379934561127 L 373.6015625 325.29217259088335 L 377.45312500000006 325.82571161754197 L 381.3046875 326.3847211218641 L 385.15625 326.9694547106967 L 389.0078125 327.58011042134365 L 392.859375 328.21682626576165 L 396.7109375 328.87967584388036 L 400.5625 329.5686640745956 L 404.41406250000006 330.2837230963303 L 408.265625 331.0247083919047 L 412.1171875 331.79139519467327 L 415.96875 332.58347523435623 L 419.82031250000006 333.4005538815934 L 423.671875 334.2421477498691 L 427.5234375 335.1076828120006 L 431.37500000000006 335.9964930857688 L 435.2265625 336.9078199394443 L 439.078125 337.8408120628873 L 442.9296875 338.79452614359184 L 446.78125000000006 339.7679282795245 L 450.6328125 340.75989615196454 L 454.484375 341.76922197189054 L 458.3359375 342.7946162029323 L 462.18750000000006 343.83471205271064 L 466.0390625 344.88807071273163 L 469.890625 345.95318731514743 L 473.74218750000006 347.0284975629053 L 477.59375 348.11238497836894 L 481.4453125 349.20318870469544 L 485.29687500000006 350.29921178436854 L 489.1484375 351.3987298305952 L 493 352.49999999999983 L 496.85156250000006 353.6012701694045 L 500.703125 354.7007882156311 L 504.5546875 355.7968112953042 L 508.40625000000006 356.8876150216307 L 512.2578125 357.9715024370944 L 516.109375 359.0468126848522 L 519.9609375 360.11192928726797 L 523.8125 361.165287947289 L 527.6640625 362.2053837970674 L 531.515625 363.2307780281091 L 535.3671875 364.2401038480351 L 539.21875 365.23207172047523 L 543.0703125 366.2054738564078 L 546.921875 367.15918793711234 L 550.7734375 368.0921800605554 L 554.625 369.00350691423085 L 558.4765625 369.89231718799914 L 562.3281250000001 370.75785225013055 L 566.1796875 371.59944611840626 L 570.03125 372.4165247656435 L 573.8828125 373.2086048053264 L 577.734375 373.975291608095 L 581.5859375 374.71627690366944 L 585.4375 375.43133592540414 L 589.2890625 376.1203241561193 L 593.140625 376.78317373423806 L 596.9921875 377.419889578656 L 600.84375 378.030545289303 L 604.6953125 378.6152788781356 L 608.546875 379.17428838245775 L 612.3984375 379.70782740911636 L 616.25 380.21620065438844 L 620.1015625 380.69975944037475 L 623.953125 381.15889730454694 L 627.8046875 381.59404567485876 L 631.65625 382.00566965860753 L 635.5078125 382.3942639690944 L 639.359375 382.76034901014145 L 643.2109375 383.1044671347263 L 647.0625 383.42717909043563 L 650.9140625 383.7290606611355 L 654.765625 384.01069951124026 L 658.6171875 384.2726922362291 L 662.46875 384.5156416206279 L 666.3203125 384.7401541025278 L 670.171875 384.9468374418536 L 674.0234375 385.13629858800556 L 677.875 385.30914174116833 L 681.7265625 385.46596660048607 L 685.578125 385.6073667914343 L 689.4296875 385.73392846404704 L 693.28125 385.8462290531706 L 697.1328125 385.9448361915867 L 700.984375 386.0303067666644 L 704.8359375 386.1031861111378 L 708.6875 386.1640073186525 L 712.5390625 386.2132906748587 L 716.390625 386.2515431950385 L 720.2421875 386.2792582595264 L 724.09375 386.29691533850183 L 727.9453125 386.3049797980892 L 731.796875 386.3039027800865 L 735.6484375 386.2941211480477 L 739.5 386.27605749285914 L 743.3515625 386.2501201913717 L 747.203125 386.21670351207035 L 751.0546875 386.1761877621786 L 754.90625 386.128939471003 L 758.7578125 386.0753116047181 L 762.609375 386.01564380817297 L 766.4609375 385.95026266966863 L 770.3125 385.87948200500136 L 774.1640625 385.8036031574012 L 778.015625 385.72291531030424 L 781.8671875 385.6376958101928 L 785.71875 385.54821049701144 L 789.5703125 385.45471403992474 L 793.421875 385.35745027641786 L 797.2734375 385.2566525529658 L 801.125 385.1525440656972 L 804.9765625 385.0453381996694 L 808.828125 384.93523886554055 L 812.6796875 384.82244083258496 L 816.53125 384.70713005713907 L 820.3828125 384.58948400569864 L 824.234375 384.4696719720035 L 828.0859375 384.34785538755625 L 831.9375 384.2241881251165 L 835.7890625 384.09881679479895 L 839.640625 383.97188103248243 L 843.4921875 383.84351378030675 L 847.34375 383.7138415590948 L 851.1953125 383.58298473259407 L 855.046875 383.4510577634785 L 858.8984375 383.31816946109666 L 862.75 383.18442322098605 L 866.6015625 383.0499172562105 L 870.453125 382.91474482060056 L 874.3046875 382.7789944240057 L 878.15625 382.64275003968464 L 882.0078125 382.50609130397834 L 885.859375 382.36909370842545 L 889.7109375 382.2318287844908 L 893.5625 382.0943642810878 L 897.4140625 381.9567643350827 L 901.265625 381.81908963497546 L 905.1171875 381.6813975779535 L 908.96875 381.5437424205215 L 912.8203125 381.40617542290727 L 916.671875 381.26874498744746 L 920.5234375 381.13149679115435 L 924.375 380.994473912665 L 928.2265625 380.8577169537702 L 932.078125 380.72126415571984 L 935.9296875 380.58515151049636 L 939.78125 380.4494128672454 L 943.6328125 380.3140800340489 L 947.484375 380.17918287521957 L 951.3359375000001 380.0447494042947 L 955.1875 379.9108058728989 L 959.0390625 379.7773768556428 L 962.890625 379.6444853312193 L 966.7421875 379.51215275985317 L 970.59375 379.3803991572559 L 974.4453125000001 379.24924316523243 L 978.296875 379.1187021190801 L 982.1484375 378.98879211191763 L 986 378.8595280560742" stroke-opacity="0.2" stroke-linecap="round" stroke-linejoin="round" stroke-miterlimit="10" stroke-width="7"/><path fill="none" stroke="rgb(211,47,47)" paint-order="fill stroke markers" d=" M 0 326.14047194392555 L 3.851562500000057 326.01120788808214 L 7.703125 325.88129788091965 L 11.5546875 325.75075683476734 L 15.406250000000057 325.61960084274386 L 19.2578125 325.48784724014666 L 23.109375000000057 325.3555146687805 L 26.9609375 325.222623144357 L 30.8125 325.0891941271009 L 34.66406250000006 324.9552505957051 L 38.515625 324.8208171247802 L 42.3671875 324.68591996595086 L 46.21875 324.55058713275434 L 50.07031250000006 324.41484848950347 L 53.921875 324.27873584427994 L 57.7734375 324.1422830462296 L 61.625 324.0055260873348 L 65.47656250000006 323.8685032088454 L 69.328125 323.7312550125523 L 73.1796875 323.5938245770925 L 77.03125000000006 323.4562575794783 L 80.8828125 323.3186024220463 L 84.734375 323.1809103650244 L 88.58593750000006 323.04323566491706 L 92.43750000000006 322.90563571891204 L 96.2890625 322.76817121550897 L 100.140625 322.6309062915743 L 103.9921875 322.49390869602144 L 107.84375 322.35724996031513 L 111.6953125 322.22100557599407 L 115.546875 322.0852551793992 L 119.39843750000006 321.95008274378927 L 123.25 321.8155767790137 L 127.1015625 321.68183053890317 L 130.95312500000006 321.54894223652127 L 134.8046875 321.4170152674057 L 138.65625 321.28615844090496 L 142.50781250000006 321.156486219693 L 146.359375 321.02811896751734 L 150.2109375 320.9011832052009 L 154.0625 320.7758118748833 L 157.9140625 320.6521446124436 L 161.765625 320.53032802799635 L 165.6171875 320.41051599430114 L 169.46875 320.2928699428607 L 173.32031250000006 320.17755916741487 L 177.171875 320.0647611344592 L 181.0234375 319.95466180033037 L 184.87500000000006 319.84745593430256 L 188.72656250000006 319.743347447034 L 192.578125 319.6425497235819 L 196.42968750000006 319.54528596007503 L 200.28125 319.45178950298833 L 204.1328125 319.36230418980705 L 207.984375 319.2770846896955 L 211.8359375 319.1963968425986 L 215.68750000000006 319.1205179949984 L 219.5390625 319.04973733033114 L 223.390625 318.9843561918268 L 227.24218750000006 318.9246883952817 L 231.09375 318.8710605289968 L 234.9453125 318.82381223782124 L 238.796875 318.7832964879294 L 242.64843750000003 318.74987980862807 L 246.50000000000003 318.72394250714063 L 250.3515625 318.7058788519521 L 254.20312500000003 318.69609721991327 L 258.0546875 318.69502020191055 L 261.90625 318.70308466149794 L 265.7578125 318.7207417404734 L 269.609375 318.7484568049613 L 273.4609375 318.7867093251411 L 277.3125 318.83599268134725 L 281.1640625 318.89681388886197 L 285.015625 318.96969323333536 L 288.8671875 319.05516380841306 L 292.71875 319.1537709468292 L 296.5703125 319.26607153595273 L 300.421875 319.3926332085655 L 304.2734375 319.53403339951365 L 308.125 319.69085825883144 L 311.9765625 319.8637014119942 L 315.828125 320.05316255814614 L 319.6796875 320.2598458974719 L 323.53125 320.4843583793718 L 327.3828125 320.7273077637706 L 331.234375 320.98930048875945 L 335.0859375 321.2709393388642 L 338.9375 321.5728209095641 L 342.7890625 321.8955328652734 L 346.640625 322.2396509898583 L 350.4921875 322.6057360309053 L 354.34375 322.9943303413922 L 358.1953125 323.40595432514095 L 362.046875 323.8411026954528 L 365.8984375 324.30024055962497 L 369.75 324.78379934561127 L 373.6015625 325.29217259088335 L 377.45312500000006 325.82571161754197 L 381.3046875 326.3847211218641 L 385.15625 326.9694547106967 L 389.0078125 327.58011042134365 L 392.859375 328.21682626576165 L 396.7109375 328.87967584388036 L 400.5625 329.5686640745956 L 404.41406250000006 330.2837230963303 L 408.265625 331.0247083919047 L 412.1171875 331.79139519467327 L 415.96875 332.58347523435623 L 419.82031250000006 333.4005538815934 L 423.671875 334.2421477498691 L 427.5234375 335.1076828120006 L 431.37500000000006 335.9964930857688 L 435.2265625 336.9078199394443 L 439.078125 337.8408120628873 L 442.9296875 338.79452614359184 L 446.78125000000006 339.7679282795245 L 450.6328125 340.75989615196454 L 454.484375 341.76922197189054 L 458.3359375 342.7946162029323 L 462.18750000000006 343.83471205271064 L 466.0390625 344.88807071273163 L 469.890625 345.95318731514743 L 473.74218750000006 347.0284975629053 L 477.59375 348.11238497836894 L 481.4453125 349.20318870469544 L 485.29687500000006 350.29921178436854 L 489.1484375 351.3987298305952 L 493 352.49999999999983 L 496.85156250000006 353.6012701694045 L 500.703125 354.7007882156311 L 504.5546875 355.7968112953042 L 508.40625000000006 356.8876150216307 L 512.2578125 357.9715024370944 L 516.109375 359.0468126848522 L 519.9609375 360.11192928726797 L 523.8125 361.165287947289 L 527.6640625 362.2053837970674 L 531.515625 363.2307780281091 L 535.3671875 364.2401038480351 L 539.21875 365.23207172047523 L 543.0703125 366.2054738564078 L 546.921875 367.15918793711234 L 550.7734375 368.0921800605554 L 554.625 369.00350691423085 L 558.4765625 369.89231718799914 L 562.3281250000001 370.75785225013055 L 566.1796875 371.59944611840626 L 570.03125 372.4165247656435 L 573.8828125 373.2086048053264 L 577.734375 373.975291608095 L 581.5859375 374.71627690366944 L 585.4375 375.43133592540414 L 589.2890625 376.1203241561193 L 593.140625 376.78317373423806 L 596.9921875 377.419889578656 L 600.84375 378.030545289303 L 604.6953125 378.6152788781356 L 608.546875 379.17428838245775 L 612.3984375 379.70782740911636 L 616.25 380.21620065438844 L 620.1015625 380.69975944037475 L 623.953125 381.15889730454694 L 627.8046875 381.59404567485876 L 631.65625 382.00566965860753 L 635.5078125 382.3942639690944 L 639.359375 382.76034901014145 L 643.2109375 383.1044671347263 L 647.0625 383.42717909043563 L 650.9140625 383.7290606611355 L 654.765625 384.01069951124026 L 658.6171875 384.2726922362291 L 662.46875 384.5156416206279 L 666.3203125 384.7401541025278 L 670.171875 384.9468374418536 L 674.0234375 385.13629858800556 L 677.875 385.30914174116833 L 681.7265625 385.46596660048607 L 685.578125 385.6073667914343 L 689.4296875 385.73392846404704 L 693.28125 385.8462290531706 L 697.1328125 385.9448361915867 L 700.984375 386.0303067666644 L 704.8359375 386.1031861111378 L 708.6875 386.1640073186525 L 712.5390625 386.2132906748587 L 716.390625 386.2515431950385 L 720.2421875 386.2792582595264 L 724.09375 386.29691533850183 L 727.9453125 386.3049797980892 L 731.796875 386.3039027800865 L 735.6484375 386.2941211480477 L 739.5 386.27605749285914 L 743.3515625 386.2501201913717 L 747.203125 386.21670351207035 L 751.0546875 386.1761877621786 L 754.90625 386.128939471003 L 758.7578125 386.0753116047181 L 762.609375 386.01564380817297 L 766.4609375 385.95026266966863 L 770.3125 385.87948200500136 L 774.1640625 385.8036031574012 L 778.015625 385.72291531030424 L 781.8671875 385.6376958101928 L 785.71875 385.54821049701144 L 789.5703125 385.45471403992474 L 793.421875 385.35745027641786 L 797.2734375 385.2566525529658 L 801.125 385.1525440656972 L 804.9765625 385.0453381996694 L 808.828125 384.93523886554055 L 812.6796875 384.82244083258496 L 816.53125 384.70713005713907 L 820.3828125 384.58948400569864 L 824.234375 384.4696719720035 L 828.0859375 384.34785538755625 L 831.9375 384.2241881251165 L 835.7890625 384.09881679479895 L 839.640625 383.97188103248243 L 843.4921875 383.84351378030675 L 847.34375 383.7138415590948 L 851.1953125 383.58298473259407 L 855.046875 383.4510577634785 L 858.8984375 383.31816946109666 L 862.75 383.18442322098605 L 866.6015625 383.0499172562105 L 870.453125 382.91474482060056 L 874.3046875 382.7789944240057 L 878.15625 382.64275003968464 L 882.0078125 382.50609130397834 L 885.859375 382.36909370842545 L 889.7109375 382.2318287844908 L 893.5625 382.0943642810878 L 897.4140625 381.9567643350827 L 901.265625 381.81908963497546 L 905.1171875 381.6813975779535 L 908.96875 381.5437424205215 L 912.8203125 381.40617542290727 L 916.671875 381.26874498744746 L 920.5234375 381.13149679115435 L 924.375 380.994473912665 L 928.2265625 380.8577169537702 L 932.078125 380.72126415571984 L 935.9296875 380.58515151049636 L 939.78125 380.4494128672454 L 943.6328125 380.3140800340489 L 947.484375 380.17918287521957 L 951.3359375000001 380.0447494042947 L 955.1875 379.9108058728989 L 959.0390625 379.7773768556428 L 962.890625 379.6444853312193 L 966.7421875 379.51215275985317 L 970.59375 379.3803991572559 L 974.4453125000001 379.24924316523243 L 978.296875 379.1187021190801 L 982.1484375 378.98879211191763 L 986 378.8595280560742" stroke-opacity="0.8" stroke-linecap="round" stroke-linejoin="round" stroke-miterlimit="10" stroke-width="2.5"/><text fill="rgb(211,47,47)" stroke="none" font-family="geogebra-sans-serif, sans-serif" font-size="16px" font-style="normal" font-weight="normal" text-decoration="normal" x="12" y="344" text-anchor="start" dominant-baseline="alphabetic" fill-opacity="1">Gravity (l=0.1)</text><text fill="none" stroke="rgb(255,255,255)" font-family="geogebra-sans-serif, sans-serif" font-size="16px" font-style="normal" font-weight="normal" text-decoration="normal" x="12" y="344" text-anchor="start" dominant-baseline="alphabetic" stroke-opacity="1" stroke-linejoin="bevel" stroke-miterlimit="10" stroke-width="3">Gravity (l=0.1)</text><text fill="rgb(211,47,47)" stroke="none" font-family="geogebra-sans-serif, sans-serif" font-size="16px" font-style="normal" font-weight="normal" text-decoration="normal" x="12" y="344" text-anchor="start" dominant-baseline="alphabetic" fill-opacity="1">Gravity (l=0.1)</text><path fill="none" stroke="rgb(101,87,210)" paint-order="fill stroke markers" d=" M 0 286.60117985981407 L 3.851562500000057 286.2780197202055 L 7.703125 285.95324470229934 L 11.5546875 285.6268920869186 L 15.406250000000057 285.2990021068599 L 19.2578125 284.9696181003668 L 23.109375000000057 284.6387866719514 L 26.9609375 284.3065578608926 L 30.8125 283.97298531775243 L 34.66406250000006 283.6381264892629 L 38.515625 283.3020428119507 L 42.3671875 282.96479991487735 L 46.21875 282.62646783188603 L 50.07031250000006 282.2871212237588 L 53.921875 281.9468396107 L 57.7734375 281.6057076155741 L 61.625 281.26381521833713 L 65.47656250000006 280.9212580221137 L 69.328125 280.578137531381 L 73.1796875 280.23456144273143 L 77.03125000000006 279.8906439486959 L 80.8828125 279.54650605511597 L 84.734375 279.20227591256105 L 88.58593750000006 278.8580891622928 L 92.43750000000006 278.5140892972802 L 96.2890625 278.1704280387726 L 100.140625 277.827265728936 L 103.9921875 277.48477174005376 L 107.84375 277.143124900788 L 111.6953125 276.8025139399854 L 115.546875 276.4631379484983 L 119.39843750000006 276.1252068594734 L 123.25 275.78894194753445 L 127.1015625 275.45457634725807 L 130.95312500000006 275.1223555913033 L 134.8046875 274.79253816851445 L 138.65625 274.46539610226256 L 142.50781250000006 274.14121554923275 L 146.359375 273.8202974187936 L 150.2109375 273.5029580130023 L 154.0625 273.1895296872084 L 157.9140625 272.8803615311091 L 161.765625 272.575820069991 L 165.6171875 272.276289985753 L 169.46875 271.9821748571519 L 173.32031250000006 271.6938979185373 L 177.171875 271.4119028361482 L 181.0234375 271.1366545008261 L 184.87500000000006 270.8686398357566 L 188.72656250000006 270.60836861758514 L 192.578125 270.3563743089549 L 196.42968750000006 270.11321490018776 L 200.28125 269.87947375747103 L 204.1328125 269.6557604745177 L 207.984375 269.44271172423896 L 211.8359375 269.2409921064966 L 215.68750000000006 269.05129498749625 L 219.5390625 268.8743433258281 L 223.390625 268.7108904795672 L 227.24218750000006 268.56172098820446 L 231.09375 268.4276513224921 L 234.9453125 268.3095305945532 L 238.796875 268.2082412198238 L 242.64843750000003 268.12469952157034 L 246.50000000000003 268.05985626785184 L 250.3515625 268.0146971298804 L 254.20312500000003 267.9902430497833 L 258.0546875 267.98755050477655 L 261.90625 268.007711653745 L 265.7578125 268.0518543511837 L 269.609375 268.1211420124034 L 273.4609375 268.21677331285287 L 277.3125 268.33998170336827 L 281.1640625 268.49203472215504 L 285.015625 268.67423308333855 L 288.8671875 268.88790952103284 L 292.71875 269.1344273670731 L 296.5703125 269.415178839882 L 300.421875 269.7315830214139 L 304.2734375 270.08508349878434 L 308.125 270.4771456470787 L 311.9765625 270.9092535299857 L 315.828125 271.3829063953656 L 319.6796875 271.89961474368 L 323.53125 272.46089594842977 L 327.3828125 273.06826940942676 L 331.234375 273.72325122189886 L 335.0859375 274.42734834716066 L 338.9375 275.1820522739105 L 342.7890625 275.9888321631837 L 346.640625 276.8491274746459 L 350.4921875 277.76434007726345 L 354.34375 278.7358258534807 L 358.1953125 279.7648858128526 L 362.046875 280.85275673863214 L 365.8984375 282.00060139906265 L 369.75 283.2094983640284 L 373.6015625 284.4804314772085 L 377.45312500000006 285.8142790438551 L 381.3046875 287.21180280466046 L 385.15625 288.67363677674194 L 389.0078125 290.20027605335935 L 392.859375 291.79206566440433 L 396.7109375 293.44918960970114 L 400.5625 295.1716601864891 L 404.41406250000006 296.95930774082586 L 408.265625 298.8117709797619 L 412.1171875 300.7284879866833 L 415.96875 302.70868808589074 L 419.82031250000006 304.75138470398366 L 423.671875 306.85536937467293 L 427.5234375 309.01920703000155 L 431.37500000000006 311.2412327144222 L 435.2265625 313.51954984861095 L 439.078125 315.85203015721845 L 442.9296875 318.2363153589797 L 446.78125000000006 320.66982069881135 L 450.6328125 323.1497403799116 L 454.484375 325.6730549297265 L 458.3359375 328.23654050733086 L 462.18750000000006 330.8367801317767 L 466.0390625 333.4701767818293 L 469.890625 336.1329682878688 L 473.74218750000006 338.8212439072633 L 477.59375 341.53096244592246 L 481.4453125 344.25797176173876 L 485.29687500000006 346.99802946092143 L 489.1484375 349.74682457648817 L 493 352.4999999999997 L 496.85156250000006 355.2531754235113 L 500.703125 358.001970539078 L 504.5546875 360.7420282382607 L 508.40625000000006 363.46903755407703 L 512.2578125 366.17875609273614 L 516.109375 368.8670317121307 L 519.9609375 371.5298232181701 L 523.8125 374.16321986822277 L 527.6640625 376.76345949266863 L 531.515625 379.3269450702729 L 535.3671875 381.8502596200879 L 539.21875 384.3301793011882 L 543.0703125 386.7636846410197 L 546.921875 389.14796984278104 L 550.7734375 391.4804501513886 L 554.625 393.75876728557733 L 558.4765625 395.980792969998 L 562.3281250000001 398.1446306253266 L 566.1796875 400.2486152960159 L 570.03125 402.29131191410886 L 573.8828125 404.2715120133162 L 577.734375 406.18822902023766 L 581.5859375 408.04069225917374 L 585.4375 409.82833981351047 L 589.2890625 411.55081039029847 L 593.140625 413.20793433559527 L 596.9921875 414.7997239466402 L 600.84375 416.32636322325766 L 604.6953125 417.78819719533914 L 608.546875 419.18572095614456 L 612.3984375 420.5195685227911 L 616.25 421.7905016359713 L 620.1015625 422.999398600937 L 623.953125 424.14724326136746 L 627.8046875 425.2351141871471 L 631.65625 426.26417414651894 L 635.5078125 427.2356599227362 L 639.359375 428.15087252535375 L 643.2109375 429.01116783681596 L 647.0625 429.81794772608924 L 650.9140625 430.572651652839 L 654.765625 431.27674877810085 L 658.6171875 431.93173059057295 L 662.46875 432.53910405156995 L 666.3203125 433.1003852563197 L 670.171875 433.6170936046341 L 674.0234375 434.0907464700141 L 677.875 434.522854352921 L 681.7265625 434.9149165012154 L 685.578125 435.26841697858583 L 689.4296875 435.5848211601177 L 693.28125 435.8655726329266 L 697.1328125 436.11209047896693 L 700.984375 436.3257669166612 L 704.8359375 436.50796527784473 L 708.6875 436.6600182966315 L 712.5390625 436.7832266871469 L 716.390625 436.87885798759635 L 720.2421875 436.9481456488161 L 724.09375 436.9922883462548 L 727.9453125 437.0124494952232 L 731.796875 437.00975695021646 L 735.6484375 436.98530287011937 L 739.5 436.94014373214793 L 743.3515625 436.87530047842944 L 747.203125 436.79175878017605 L 751.0546875 436.69046940544655 L 754.90625 436.57234867750765 L 758.7578125 436.4382790117953 L 762.609375 436.28910952043265 L 766.4609375 436.12565667417175 L 770.3125 435.9487050125036 L 774.1640625 435.7590078935032 L 778.015625 435.5572882757608 L 781.8671875 435.34423952548207 L 785.71875 435.1205262425288 L 789.5703125 434.886785099812 L 793.421875 434.6436256910449 L 797.2734375 434.39163138241463 L 801.125 434.13136016424323 L 804.9765625 433.86334549917365 L 808.828125 433.58809716385156 L 812.6796875 433.30610208146254 L 816.53125 433.01782514284787 L 820.3828125 432.72371001424676 L 824.234375 432.4241799300088 L 828.0859375 432.11963846889074 L 831.9375 431.81047031279144 L 835.7890625 431.4970419869975 L 839.640625 431.17970258120624 L 843.4921875 430.858784450767 L 847.34375 430.53460389773727 L 851.1953125 430.2074618314853 L 855.046875 429.8776444086965 L 858.8984375 429.54542365274176 L 862.75 429.2110580524653 L 866.6015625 428.87479314052644 L 870.453125 428.53686205150154 L 874.3046875 428.19748606001446 L 878.15625 427.85687509921183 L 882.0078125 427.51522825994607 L 885.859375 427.1727342710638 L 889.7109375 426.8295719612272 L 893.5625 426.4859107027196 L 897.4140625 426.141910837707 L 901.265625 425.7977240874387 L 905.1171875 425.4534939448838 L 908.96875 425.10935605130385 L 912.8203125 424.7654385572684 L 916.671875 424.4218624686189 L 920.5234375 424.0787419778861 L 924.375 423.7361847816627 L 928.2265625 423.39429238442574 L 932.078125 423.0531603892998 L 935.9296875 422.71287877624104 L 939.78125 422.3735321681138 L 943.6328125 422.0352000851225 L 947.484375 421.6979571880491 L 951.3359375000001 421.3618735107369 L 955.1875 421.02701468224734 L 959.0390625 420.69344213910716 L 962.890625 420.3612133280484 L 966.7421875 420.030381899633 L 970.59375 419.7009978931399 L 974.4453125000001 419.3731079130812 L 978.296875 419.04675529770054 L 982.1484375 418.72198027979425 L 986 418.3988201401857" stroke-opacity="0.8" stroke-linecap="round" stroke-linejoin="round" stroke-miterlimit="10" stroke-width="2.5"/><text fill="rgb(101,87,210)" stroke="none" font-family="geogebra-sans-serif, sans-serif" font-size="16px" font-style="normal" font-weight="normal" text-decoration="normal" x="3" y="270" text-anchor="start" dominant-baseline="alphabetic" fill-opacity="1">Gravity (l=0.25)</text><text fill="none" stroke="rgb(255,255,255)" font-family="geogebra-sans-serif, sans-serif" font-size="16px" font-style="normal" font-weight="normal" text-decoration="normal" x="3" y="270" text-anchor="start" dominant-baseline="alphabetic" stroke-opacity="1" stroke-linejoin="bevel" stroke-miterlimit="10" stroke-width="3">Gravity (l=0.25)</text><text fill="rgb(101,87,210)" stroke="none" font-family="geogebra-sans-serif, sans-serif" font-size="16px" font-style="normal" font-weight="normal" text-decoration="normal" x="3" y="270" text-anchor="start" dominant-baseline="alphabetic" fill-opacity="1">Gravity (l=0.25)</text><path fill="none" stroke="rgb(46,125,50)" paint-order="fill stroke markers" d=" M -5 210.06997971602425 L 991 494.9300202839754" stroke-opacity="0.8" stroke-linecap="round" stroke-linejoin="round" stroke-miterlimit="10" stroke-width="2.5"/><text fill="rgb(46,125,50)" stroke="none" font-family="geogebra-sans-serif, sans-serif" font-size="16px" font-style="normal" font-weight="normal" text-decoration="normal" x="22" y="208" text-anchor="start" dominant-baseline="alphabetic" fill-opacity="1">SGD (l=0.1)</text><text fill="none" stroke="rgb(255,255,255)" font-family="geogebra-sans-serif, sans-serif" font-size="16px" font-style="normal" font-weight="normal" text-decoration="normal" x="22" y="208" text-anchor="start" dominant-baseline="alphabetic" stroke-opacity="1" stroke-linejoin="bevel" stroke-miterlimit="10" stroke-width="3">SGD (l=0.1)</text><text fill="rgb(46,125,50)" stroke="none" font-family="geogebra-sans-serif, sans-serif" font-size="16px" font-style="normal" font-weight="normal" text-decoration="normal" x="22" y="208" text-anchor="start" dominant-baseline="alphabetic" fill-opacity="1">SGD (l=0.1)</text><path fill="none" stroke="rgb(21,101,192)" paint-order="fill stroke markers" d=" M -5 -3.5750507099391453 L 991 708.5750507099386" stroke-opacity="0.8" stroke-linecap="round" stroke-linejoin="round" stroke-miterlimit="10" stroke-width="2.5"/><text fill="rgb(21,101,192)" stroke="none" font-family="geogebra-sans-serif, sans-serif" font-size="16px" font-style="normal" font-weight="normal" text-decoration="normal" x="59" y="27" text-anchor="start" dominant-baseline="alphabetic" fill-opacity="1">SGD (l=0.25)</text><text fill="none" stroke="rgb(255,255,255)" font-family="geogebra-sans-serif, sans-serif" font-size="16px" font-style="normal" font-weight="normal" text-decoration="normal" x="59" y="27" text-anchor="start" dominant-baseline="alphabetic" stroke-opacity="1" stroke-linejoin="bevel" stroke-miterlimit="10" stroke-width="3">SGD (l=0.25)</text><text fill="rgb(21,101,192)" stroke="none" font-family="geogebra-sans-serif, sans-serif" font-size="16px" font-style="normal" font-weight="normal" text-decoration="normal" x="59" y="27" text-anchor="start" dominant-baseline="alphabetic" fill-opacity="1">SGD (l=0.25)</text><path fill="rgb(97,97,97)" stroke="none" paint-order="stroke fill markers" d=" M 498.0000000000002 352.4999999999999 C 498.0000000000002 355.26142374915383 495.7614237491542 357.4999999999999 493.0000000000002 357.4999999999999 C 490.2385762508463 357.4999999999999 488.0000000000002 355.26142374915383 488.0000000000002 352.4999999999999 C 488.0000000000002 349.73857625084594 490.2385762508463 347.4999999999999 493.0000000000002 347.4999999999999 C 495.7614237491542 347.4999999999999 498.0000000000002 349.73857625084594 498.0000000000002 352.4999999999999 Z" fill-opacity="1"/><path fill="rgb(97,97,97)" stroke="none" paint-order="stroke fill markers" d=" M 261.60039213457617 318.6943765628551 C 261.60039213457617 321.45580031200905 259.3618158837301 323.6943765628551 256.60039213457617 323.6943765628551 C 253.8389683854222 323.6943765628551 251.60039213457617 321.45580031200905 251.60039213457617 318.6943765628551 C 251.60039213457617 315.93295281370115 253.8389683854222 313.6943765628551 256.60039213457617 313.6943765628551 C 259.3618158837301 313.6943765628551 261.60039213457617 315.93295281370115 261.60039213457617 318.6943765628551 Z" fill-opacity="1"/><path fill="rgb(97,97,97)" stroke="none" paint-order="stroke fill markers" d=" M 734.3996078654243 386.3056234371447 C 734.3996078654243 389.0670471862986 732.1610316145783 391.3056234371447 729.3996078654243 391.3056234371447 C 726.6381841162703 391.3056234371447 724.3996078654243 389.0670471862986 724.3996078654243 386.3056234371447 C 724.3996078654243 383.5441996879907 726.6381841162703 381.3056234371447 729.3996078654243 381.3056234371447 C 732.1610316145783 381.3056234371447 734.3996078654243 383.5441996879907 734.3996078654243 386.3056234371447 Z" fill-opacity="1"/><path fill="rgb(97,97,97)" stroke="none" paint-order="stroke fill markers" d=" M 498.0000000000002 352.4999999999999 C 498.0000000000002 355.26142374915383 495.7614237491542 357.4999999999999 493.0000000000002 357.4999999999999 C 490.2385762508463 357.4999999999999 488.0000000000002 355.26142374915383 488.0000000000002 352.4999999999999 C 488.0000000000002 349.73857625084594 490.2385762508463 347.4999999999999 493.0000000000002 347.4999999999999 C 495.7614237491542 347.4999999999999 498.0000000000002 349.73857625084594 498.0000000000002 352.4999999999999 Z" fill-opacity="1"/><path fill="rgb(97,97,97)" stroke="none" paint-order="stroke fill markers" d=" M 498.0000000000002 352.4999999999999 C 498.0000000000002 355.26142374915383 495.7614237491542 357.4999999999999 493.0000000000002 357.4999999999999 C 490.2385762508463 357.4999999999999 488.0000000000002 355.26142374915383 488.0000000000002 352.4999999999999 C 488.0000000000002 349.73857625084594 490.2385762508463 347.4999999999999 493.0000000000002 347.4999999999999 C 495.7614237491542 347.4999999999999 498.0000000000002 349.73857625084594 498.0000000000002 352.4999999999999 Z" fill-opacity="1"/><path fill="rgb(97,97,97)" stroke="none" paint-order="stroke fill markers" d=" M 498.0000000000002 352.4999999999999 C 498.0000000000002 355.26142374915383 495.7614237491542 357.4999999999999 493.0000000000002 357.4999999999999 C 490.2385762508463 357.4999999999999 488.0000000000002 355.26142374915383 488.0000000000002 352.4999999999999 C 488.0000000000002 349.73857625084594 490.2385762508463 347.4999999999999 493.0000000000002 347.4999999999999 C 495.7614237491542 347.4999999999999 498.0000000000002 349.73857625084594 498.0000000000002 352.4999999999999 Z" fill-opacity="1"/><path fill="rgb(97,97,97)" stroke="none" paint-order="stroke fill markers" d=" M 498.0000000000002 352.4999999999999 C 498.0000000000002 355.26142374915383 495.7614237491542 357.4999999999999 493.0000000000002 357.4999999999999 C 490.2385762508463 357.4999999999999 488.0000000000002 355.26142374915383 488.0000000000002 352.4999999999999 C 488.0000000000002 349.73857625084594 490.2385762508463 347.4999999999999 493.0000000000002 347.4999999999999 C 495.7614237491542 347.4999999999999 498.0000000000002 349.73857625084594 498.0000000000002 352.4999999999999 Z" fill-opacity="1"/><path fill="rgb(97,97,97)" stroke="none" paint-order="stroke fill markers" d=" M 261.60039213457617 318.6943765628551 C 261.60039213457617 321.45580031200905 259.3618158837301 323.6943765628551 256.60039213457617 323.6943765628551 C 253.8389683854222 323.6943765628551 251.60039213457617 321.45580031200905 251.60039213457617 318.6943765628551 C 251.60039213457617 315.93295281370115 253.8389683854222 313.6943765628551 256.60039213457617 313.6943765628551 C 259.3618158837301 313.6943765628551 261.60039213457617 315.93295281370115 261.60039213457617 318.6943765628551 Z" fill-opacity="1"/><path fill="none" stroke="rgb(0,0,0)" paint-order="fill stroke markers" d=" M 261.60039213457617 318.6943765628551 C 261.60039213457617 321.45580031200905 259.3618158837301 323.6943765628551 256.60039213457617 323.6943765628551 C 253.8389683854222 323.6943765628551 251.60039213457617 321.45580031200905 251.60039213457617 318.6943765628551 C 251.60039213457617 315.93295281370115 253.8389683854222 313.6943765628551 256.60039213457617 313.6943765628551 C 259.3618158837301 313.6943765628551 261.60039213457617 315.93295281370115 261.60039213457617 318.6943765628551 Z" stroke-opacity="1" stroke-linecap="round" stroke-linejoin="round" stroke-miterlimit="10"/><text fill="rgb(97,97,97)" stroke="none" font-family="geogebra-sans-serif, sans-serif" font-size="16px" font-style="normal" font-weight="normal" text-decoration="normal" x="261" y="309" text-anchor="start" dominant-baseline="alphabetic" fill-opacity="1">(-1, 0.05)</text><text fill="none" stroke="rgb(255,255,255)" font-family="geogebra-sans-serif, sans-serif" font-size="16px" font-style="normal" font-weight="normal" text-decoration="normal" x="261" y="309" text-anchor="start" dominant-baseline="alphabetic" stroke-opacity="1" stroke-linejoin="bevel" stroke-miterlimit="10" stroke-width="3">(-1, 0.05)</text><text fill="rgb(97,97,97)" stroke="none" font-family="geogebra-sans-serif, sans-serif" font-size="16px" font-style="normal" font-weight="normal" text-decoration="normal" x="261" y="309" text-anchor="start" dominant-baseline="alphabetic" fill-opacity="1">(-1, 0.05)</text><path fill="rgb(97,97,97)" stroke="none" paint-order="stroke fill markers" d=" M 734.3996078654243 386.3056234371447 C 734.3996078654243 389.0670471862986 732.1610316145783 391.3056234371447 729.3996078654243 391.3056234371447 C 726.6381841162703 391.3056234371447 724.3996078654243 389.0670471862986 724.3996078654243 386.3056234371447 C 724.3996078654243 383.5441996879907 726.6381841162703 381.3056234371447 729.3996078654243 381.3056234371447 C 732.1610316145783 381.3056234371447 734.3996078654243 383.5441996879907 734.3996078654243 386.3056234371447 Z" fill-opacity="1"/><path fill="none" stroke="rgb(0,0,0)" paint-order="fill stroke markers" d=" M 734.3996078654243 386.3056234371447 C 734.3996078654243 389.0670471862986 732.1610316145783 391.3056234371447 729.3996078654243 391.3056234371447 C 726.6381841162703 391.3056234371447 724.3996078654243 389.0670471862986 724.3996078654243 386.3056234371447 C 724.3996078654243 383.5441996879907 726.6381841162703 381.3056234371447 729.3996078654243 381.3056234371447 C 732.1610316145783 381.3056234371447 734.3996078654243 383.5441996879907 734.3996078654243 386.3056234371447 Z" stroke-opacity="1" stroke-linecap="round" stroke-linejoin="round" stroke-miterlimit="10"/><text fill="rgb(97,97,97)" stroke="none" font-family="geogebra-sans-serif, sans-serif" font-size="16px" font-style="normal" font-weight="normal" text-decoration="normal" x="733" y="376" text-anchor="start" dominant-baseline="alphabetic" fill-opacity="1">(1, -0.05)</text><text fill="none" stroke="rgb(255,255,255)" font-family="geogebra-sans-serif, sans-serif" font-size="16px" font-style="normal" font-weight="normal" text-decoration="normal" x="733" y="376" text-anchor="start" dominant-baseline="alphabetic" stroke-opacity="1" stroke-linejoin="bevel" stroke-miterlimit="10" stroke-width="3">(1, -0.05)</text><text fill="rgb(97,97,97)" stroke="none" font-family="geogebra-sans-serif, sans-serif" font-size="16px" font-style="normal" font-weight="normal" text-decoration="normal" x="733" y="376" text-anchor="start" dominant-baseline="alphabetic" fill-opacity="1">(1, -0.05)</text><path fill="rgb(97,97,97)" stroke="none" paint-order="stroke fill markers" d=" M 261.60039213457617 267.98594140713794 C 261.60039213457617 270.7473651562919 259.3618158837301 272.98594140713794 256.60039213457617 272.98594140713794 C 253.8389683854222 272.98594140713794 251.60039213457617 270.7473651562919 251.60039213457617 267.98594140713794 C 251.60039213457617 265.224517657984 253.8389683854222 262.98594140713794 256.60039213457617 262.98594140713794 C 259.3618158837301 262.98594140713794 261.60039213457617 265.224517657984 261.60039213457617 267.98594140713794 Z" fill-opacity="1"/><path fill="none" stroke="rgb(0,0,0)" paint-order="fill stroke markers" d=" M 261.60039213457617 267.98594140713794 C 261.60039213457617 270.7473651562919 259.3618158837301 272.98594140713794 256.60039213457617 272.98594140713794 C 253.8389683854222 272.98594140713794 251.60039213457617 270.7473651562919 251.60039213457617 267.98594140713794 C 251.60039213457617 265.224517657984 253.8389683854222 262.98594140713794 256.60039213457617 262.98594140713794 C 259.3618158837301 262.98594140713794 261.60039213457617 265.224517657984 261.60039213457617 267.98594140713794 Z" stroke-opacity="1" stroke-linecap="round" stroke-linejoin="round" stroke-miterlimit="10"/><text fill="rgb(97,97,97)" stroke="none" font-family="geogebra-sans-serif, sans-serif" font-size="16px" font-style="normal" font-weight="normal" text-decoration="normal" x="261" y="258" text-anchor="start" dominant-baseline="alphabetic" fill-opacity="1">(-1, 0.125)</text><text fill="none" stroke="rgb(255,255,255)" font-family="geogebra-sans-serif, sans-serif" font-size="16px" font-style="normal" font-weight="normal" text-decoration="normal" x="261" y="258" text-anchor="start" dominant-baseline="alphabetic" stroke-opacity="1" stroke-linejoin="bevel" stroke-miterlimit="10" stroke-width="3">(-1, 0.125)</text><text fill="rgb(97,97,97)" stroke="none" font-family="geogebra-sans-serif, sans-serif" font-size="16px" font-style="normal" font-weight="normal" text-decoration="normal" x="261" y="258" text-anchor="start" dominant-baseline="alphabetic" fill-opacity="1">(-1, 0.125)</text><path fill="rgb(97,97,97)" stroke="none" paint-order="stroke fill markers" d=" M 734.3996078654243 437.01405859286183 C 734.3996078654243 439.7754823420158 732.1610316145783 442.01405859286183 729.3996078654243 442.01405859286183 C 726.6381841162703 442.01405859286183 724.3996078654243 439.7754823420158 724.3996078654243 437.01405859286183 C 724.3996078654243 434.2526348437079 726.6381841162703 432.01405859286183 729.3996078654243 432.01405859286183 C 732.1610316145783 432.01405859286183 734.3996078654243 434.2526348437079 734.3996078654243 437.01405859286183 Z" fill-opacity="1"/><path fill="none" stroke="rgb(0,0,0)" paint-order="fill stroke markers" d=" M 734.3996078654243 437.01405859286183 C 734.3996078654243 439.7754823420158 732.1610316145783 442.01405859286183 729.3996078654243 442.01405859286183 C 726.6381841162703 442.01405859286183 724.3996078654243 439.7754823420158 724.3996078654243 437.01405859286183 C 724.3996078654243 434.2526348437079 726.6381841162703 432.01405859286183 729.3996078654243 432.01405859286183 C 732.1610316145783 432.01405859286183 734.3996078654243 434.2526348437079 734.3996078654243 437.01405859286183 Z" stroke-opacity="1" stroke-linecap="round" stroke-linejoin="round" stroke-miterlimit="10"/><text fill="rgb(97,97,97)" stroke="none" font-family="geogebra-sans-serif, sans-serif" font-size="16px" font-style="normal" font-weight="normal" text-decoration="normal" x="733" y="427" text-anchor="start" dominant-baseline="alphabetic" fill-opacity="1">(1, -0.125)</text><text fill="none" stroke="rgb(255,255,255)" font-family="geogebra-sans-serif, sans-serif" font-size="16px" font-style="normal" font-weight="normal" text-decoration="normal" x="733" y="427" text-anchor="start" dominant-baseline="alphabetic" stroke-opacity="1" stroke-linejoin="bevel" stroke-miterlimit="10" stroke-width="3">(1, -0.125)</text><text fill="rgb(97,97,97)" stroke="none" font-family="geogebra-sans-serif, sans-serif" font-size="16px" font-style="normal" font-weight="normal" text-decoration="normal" x="733" y="427" text-anchor="start" dominant-baseline="alphabetic" fill-opacity="1">(1, -0.125)</text></g></g></svg>