<svg version="1.1" xmlns="http://www.w3.org/2000/svg" xmlns:xlink="http://www.w3.org/1999/xlink" width="986" height="705"><defs><clipPath id="oEHnfvZwSrOQ"><path fill="none" stroke="none" d=" M 0 0 L 986 0 L 986 705 L 0 705 L 0 0 Z"/></clipPath></defs><g transform="scale(1,1)" clip-path="url(#oEHnfvZwSrOQ)"><g><rect fill="rgb(255,255,255)" stroke="none" x="0" y="0" width="986" height="705" fill-opacity="1"/><path fill="none" stroke="rgb(192,192,192)" paint-order="fill stroke markers" d=" M 27.5 0.5 L 27.5 705.5 M 27.5 0.5 L 27.5 705.5 M 69.5 0.5 L 69.5 705.5 M 111.5 0.5 L 111.5 705.5 M 152.5 0.5 L 152.5 705.5 M 194.5 0.5 L 194.5 705.5 M 236.5 0.5 L 236.5 705.5 M 278.5 0.5 L 278.5 705.5 M 320.5 0.5 L 320.5 705.5 M 361.5 0.5 L 361.5 705.5 M 403.5 0.5 L 403.5 705.5 M 445.5 0.5 L 445.5 705.5 M 487.5 0.5 L 487.5 705.5 M 570.5 0.5 L 570.5 705.5 M 612.5 0.5 L 612.5 705.5 M 654.5 0.5 L 654.5 705.5 M 696.5 0.5 L 696.5 705.5 M 738.5 0.5 L 738.5 705.5 M 779.5 0.5 L 779.5 705.5 M 821.5 0.5 L 821.5 705.5 M 863.5 0.5 L 863.5 705.5 M 905.5 0.5 L 905.5 705.5 M 947.5 0.5 L 947.5 705.5" stroke-opacity="1" stroke-linecap="round" stroke-linejoin="round" stroke-miterlimit="10"/><path fill="none" stroke="rgb(192,192,192)" paint-order="fill stroke markers" d=" M 2.5 0.5 L 2.5 705.5 M 10.5 0.5 L 10.5 705.5 M 19.5 0.5 L 19.5 705.5 M 35.5 0.5 L 35.5 705.5 M 44.5 0.5 L 44.5 705.5 M 52.5 0.5 L 52.5 705.5 M 60.5 0.5 L 60.5 705.5 M 77.5 0.5 L 77.5 705.5 M 85.5 0.5 L 85.5 705.5 M 94.5 0.5 L 94.5 705.5 M 102.5 0.5 L 102.5 705.5 M 119.5 0.5 L 119.5 705.5 M 127.5 0.5 L 127.5 705.5 M 136.5 0.5 L 136.5 705.5 M 144.5 0.5 L 144.5 705.5 M 161.5 0.5 L 161.5 705.5 M 169.5 0.5 L 169.5 705.5 M 177.5 0.5 L 177.5 705.5 M 186.5 0.5 L 186.5 705.5 M 203.5 0.5 L 203.5 705.5 M 211.5 0.5 L 211.5 705.5 M 219.5 0.5 L 219.5 705.5 M 228.5 0.5 L 228.5 705.5 M 244.5 0.5 L 244.5 705.5 M 253.5 0.5 L 253.5 705.5 M 261.5 0.5 L 261.5 705.5 M 269.5 0.5 L 269.5 705.5 M 286.5 0.5 L 286.5 705.5 M 294.5 0.5 L 294.5 705.5 M 303.5 0.5 L 303.5 705.5 M 311.5 0.5 L 311.5 705.5 M 328.5 0.5 L 328.5 705.5 M 336.5 0.5 L 336.5 705.5 M 345.5 0.5 L 345.5 705.5 M 353.5 0.5 L 353.5 705.5 M 370.5 0.5 L 370.5 705.5 M 378.5 0.5 L 378.5 705.5 M 386.5 0.5 L 386.5 705.5 M 395.5 0.5 L 395.5 705.5 M 412.5 0.5 L 412.5 705.5 M 420.5 0.5 L 420.5 705.5 M 428.5 0.5 L 428.5 705.5 M 437.5 0.5 L 437.5 705.5 M 453.5 0.5 L 453.5 705.5 M 462.5 0.5 L 462.5 705.5 M 470.5 0.5 L 470.5 705.5 M 478.5 0.5 L 478.5 705.5 M 495.5 0.5 L 495.5 705.5 M 503.5 0.5 L 503.5 705.5 M 512.5 0.5 L 512.5 705.5 M 520.5 0.5 L 520.5 705.5 M 537.5 0.5 L 537.5 705.5 M 545.5 0.5 L 545.5 705.5 M 554.5 0.5 L 554.5 705.5 M 562.5 0.5 L 562.5 705.5 M 579.5 0.5 L 579.5 705.5 M 587.5 0.5 L 587.5 705.5 M 595.5 0.5 L 595.5 705.5 M 604.5 0.5 L 604.5 705.5 M 621.5 0.5 L 621.5 705.5 M 629.5 0.5 L 629.5 705.5 M 637.5 0.5 L 637.5 705.5 M 646.5 0.5 L 646.5 705.5 M 662.5 0.5 L 662.5 705.5 M 671.5 0.5 L 671.5 705.5 M 679.5 0.5 L 679.5 705.5 M 687.5 0.5 L 687.5 705.5 M 704.5 0.5 L 704.5 705.5 M 712.5 0.5 L 712.5 705.5 M 721.5 0.5 L 721.5 705.5 M 729.5 0.5 L 729.5 705.5 M 746.5 0.5 L 746.5 705.5 M 754.5 0.5 L 754.5 705.5 M 763.5 0.5 L 763.5 705.5 M 771.5 0.5 L 771.5 705.5 M 788.5 0.5 L 788.5 705.5 M 796.5 0.5 L 796.5 705.5 M 804.5 0.5 L 804.5 705.5 M 813.5 0.5 L 813.5 705.5 M 829.5 0.5 L 829.5 705.5 M 838.5 0.5 L 838.5 705.5 M 846.5 0.5 L 846.5 705.5 M 855.5 0.5 L 855.5 705.5 M 871.5 0.5 L 871.5 705.5 M 880.5 0.5 L 880.5 705.5 M 888.5 0.5 L 888.5 705.5 M 896.5 0.5 L 896.5 705.5 M 913.5 0.5 L 913.5 705.5 M 921.5 0.5 L 921.5 705.5 M 930.5 0.5 L 930.5 705.5 M 938.5 0.5 L 938.5 705.5 M 955.5 0.5 L 955.5 705.5 M 963.5 0.5 L 963.5 705.5 M 972.5 0.5 L 972.5 705.5 M 980.5 0.5 L 980.5 705.5" stroke-opacity="0.23529411764705882" stroke-linecap="round" stroke-linejoin="round" stroke-miterlimit="10"/><path fill="none" stroke="rgb(192,192,192)" paint-order="fill stroke markers" d=" M 0.5 5.5 L 986.5 5.5 M 0.5 5.5 L 986.5 5.5 M 0.5 80.5 L 986.5 80.5 M 0.5 154.5 L 986.5 154.5 M 0.5 229.5 L 986.5 229.5 M 0.5 304.5 L 986.5 304.5 M 0.5 453.5 L 986.5 453.5 M 0.5 527.5 L 986.5 527.5 M 0.5 602.5 L 986.5 602.5 M 0.5 677.5 L 986.5 677.5" stroke-opacity="1" stroke-linecap="round" stroke-linejoin="round" stroke-miterlimit="10"/><path fill="none" stroke="rgb(192,192,192)" paint-order="fill stroke markers" d=" M 0.5 5.5 L 986.5 5.5 M 0.5 20.5 L 986.5 20.5 M 0.5 35.5 L 986.5 35.5 M 0.5 50.5 L 986.5 50.5 M 0.5 65.5 L 986.5 65.5 M 0.5 94.5 L 986.5 94.5 M 0.5 109.5 L 986.5 109.5 M 0.5 124.5 L 986.5 124.5 M 0.5 139.5 L 986.5 139.5 M 0.5 169.5 L 986.5 169.5 M 0.5 184.5 L 986.5 184.5 M 0.5 199.5 L 986.5 199.5 M 0.5 214.5 L 986.5 214.5 M 0.5 244.5 L 986.5 244.5 M 0.5 259.5 L 986.5 259.5 M 0.5 274.5 L 986.5 274.5 M 0.5 289.5 L 986.5 289.5 M 0.5 318.5 L 986.5 318.5 M 0.5 333.5 L 986.5 333.5 M 0.5 348.5 L 986.5 348.5 M 0.5 363.5 L 986.5 363.5 M 0.5 393.5 L 986.5 393.5 M 0.5 408.5 L 986.5 408.5 M 0.5 423.5 L 986.5 423.5 M 0.5 438.5 L 986.5 438.5 M 0.5 468.5 L 986.5 468.5 M 0.5 483.5 L 986.5 483.5 M 0.5 498.5 L 986.5 498.5 M 0.5 513.5 L 986.5 513.5 M 0.5 542.5 L 986.5 542.5 M 0.5 557.5 L 986.5 557.5 M 0.5 572.5 L 986.5 572.5 M 0.5 587.5 L 986.5 587.5 M 0.5 617.5 L 986.5 617.5 M 0.5 632.5 L 986.5 632.5 M 0.5 647.5 L 986.5 647.5 M 0.5 662.5 L 986.5 662.5 M 0.5 692.5 L 986.5 692.5" stroke-opacity="0.23529411764705882" stroke-linecap="round" stroke-linejoin="round" stroke-miterlimit="10"/><path fill="none" stroke="rgb(0,0,0)" paint-order="fill stroke markers" d=" M 529.5 2.5 L 529.5 705.5" stroke-opacity="1" stroke-miterlimit="10"/><path fill="none" stroke="rgb(0,0,0)" paint-order="fill stroke markers" d=" M 529.5 1.5 L 525.5 5.5" stroke-opacity="1" stroke-miterlimit="10"/><path fill="none" stroke="rgb(0,0,0)" paint-order="fill stroke markers" d=" M 529.5 1.5 L 533.5 5.5" stroke-opacity="1" stroke-miterlimit="10"/><text fill="rgb(0,0,0)" stroke="none" font-family="geogebra-sans-serif, sans-serif" font-size="16px" font-style="normal" font-weight="normal" text-decoration="normal" x="967" y="374" text-anchor="start" dominant-baseline="alphabetic" fill-opacity="1">g</text><path fill="none" stroke="rgb(0,0,0)" paint-order="fill stroke markers" d=" M 0.5 378.5 L 984.5 378.5" stroke-opacity="1" stroke-miterlimit="10"/><path fill="none" stroke="rgb(0,0,0)" paint-order="fill stroke markers" d=" M 985.5 378.5 L 981.5 374.5" stroke-opacity="1" stroke-miterlimit="10"/><path fill="none" stroke="rgb(0,0,0)" paint-order="fill stroke markers" d=" M 985.5 378.5 L 981.5 382.5" stroke-opacity="1" stroke-miterlimit="10"/><text fill="rgb(0,0,0)" stroke="none" font-family="geogebra-sans-serif, sans-serif" font-size="16px" font-style="normal" font-weight="normal" text-decoration="normal" x="534" y="17" text-anchor="start" dominant-baseline="alphabetic" fill-opacity="1">ΔW</text><path fill="none" stroke="rgb(46,125,50)" paint-order="fill stroke markers" d=" M -5 -2.843043595762274 L 991 708.66442381032" stroke-opacity="0.8" stroke-linecap="round" stroke-linejoin="round" stroke-miterlimit="10" stroke-width="2.5"/><text fill="rgb(46,125,50)" stroke="none" font-family="geogebra-sans-serif, sans-serif" font-size="16px" font-style="normal" font-weight="normal" text-decoration="normal" x="5" y="16" text-anchor="start" dominant-baseline="alphabetic" fill-opacity="1">SGD</text><text fill="none" stroke="rgb(255,255,255)" font-family="geogebra-sans-serif, sans-serif" font-size="16px" font-style="normal" font-weight="normal" text-decoration="normal" x="5" y="16" text-anchor="start" dominant-baseline="alphabetic" stroke-opacity="1" stroke-linejoin="bevel" stroke-miterlimit="10" stroke-width="3">SGD</text><text fill="rgb(46,125,50)" stroke="none" font-family="geogebra-sans-serif, sans-serif" font-size="16px" font-style="normal" font-weight="normal" text-decoration="normal" x="5" y="16" text-anchor="start" dominant-baseline="alphabetic" fill-opacity="1">SGD</text><text fill="rgb(46,125,50)" stroke="none" font-family="geogebra-serif, serif" font-size="32px" font-style="italic" font-weight="bold" text-decoration="normal" x="123" y="80" text-anchor="start" dominant-baseline="alphabetic" fill-opacity="1">l=0.1</text></g></g></svg>